<svg width="365" height="636" viewBox="0 0 365 636" fill="none" xmlns="http://www.w3.org/2000/svg">
<path fill-rule="evenodd" clip-rule="evenodd" d="M30.1614 407.466C32.0193 402.352 29.3064 397.25 27.8016 392.302C22.4557 375.141 16.619 357.98 8.36091 341.976C5.23295 336.623 10.379 330.056 16.3422 331.565C26.5509 332.999 37.0778 331.858 47.3043 331.225C51.0442 321.522 61.0259 317.497 68.8819 311.909C77.7969 306.33 86.4688 299.921 95.7403 295.029C96.2559 290.407 101.845 289.262 105.263 292.568C114.649 286.712 125.906 287.8 135.968 283.964C143.614 271.571 144.187 258.539 146.212 246.583C147.094 241.372 146.157 236.343 149.708 231.697C161.637 214.872 208.773 207.577 226.152 217.547C235.507 211.697 235.732 222.293 237.218 228.832C238.87 232.104 239.763 235.81 239.487 239.714C249.535 260.76 272.524 270.275 293.113 277.983C295.696 275.491 299.387 275.806 301.844 277.868C319.69 281.758 337.009 288.597 351.961 299.275C368.948 304.257 380.911 318.111 389.562 332.966C390.515 334.532 390.739 336.129 390.461 337.595C417.063 376.698 429.759 423.511 431.542 470.792C448.649 481.087 423.412 573.574 417.536 592.775C417.53 592.772 417.525 592.77 417.519 592.767C413.707 599.534 409.379 618.843 399.841 617.349C393.297 624.768 382.87 623.309 373.99 623.879C375.437 629.442 374.726 635.807 373.005 641.305C370.969 647.848 360.978 648.07 359.562 640.936C271.137 658.163 180.409 644.418 90.9899 647.003C65.136 647.187 39.2845 647.99 13.4928 649.837C9.86102 650.096 6.17902 646.375 6.42618 642.749C11.9714 583.589 17.1789 505.764 23.3798 447.184C24.8504 433.824 26.0135 420.318 30.1614 407.466Z" fill="white"/>
<path fill-rule="evenodd" clip-rule="evenodd" d="M235.76 221.199C235.506 220.505 234.473 220.597 234.453 221.376C234.046 238.01 238.175 258.337 251.449 269.573C258.262 275.34 267.27 277.98 275.543 281.013L276.476 281.358L291.092 286.818C294.969 288.266 299.15 290.494 302.574 288.448C299.804 295.338 297.478 302.418 294.103 309.058C289.902 317.325 284.824 324.888 278.608 331.766C253.983 359.018 215.011 367.33 180.037 359.346C162.028 355.234 144.504 347.441 132.217 333.228C122.879 322.425 117.515 307.925 116.25 293.622C116.62 293.681 117.007 293.679 117.405 293.591C121.83 292.623 126.297 290.245 130.191 287.912L130.566 287.687C134.313 285.425 138.218 282.833 140.906 279.32C142.686 276.993 144.511 272.036 146.379 264.447C147.142 260.169 147.858 251.647 147.736 247.322C147.725 246.914 145.919 246.674 145.727 247.098C144.059 250.769 143.519 258.835 142.232 262.656L141.972 263.418C140.597 267.408 139.418 272.266 136.567 275.492C131.216 281.549 123.141 284.113 115.933 287.151C115.416 280.305 104.513 280.465 104.651 287.604C104.659 287.991 104.676 288.377 104.689 288.763C103.83 289.237 103.003 289.779 102.229 290.302L101.475 290.816C98.6204 292.763 95.7437 294.613 92.7038 296.265C86.8187 299.464 80.5882 302 74.5581 304.904C68.4577 307.842 62.7523 311.342 57.4253 315.532C54.9233 317.499 52.5242 319.594 50.2489 321.82L49.6314 322.43C47.4655 324.594 44.6474 327.012 43.4134 329.855C43.1414 330.482 41.7787 331.939 41.0393 331.988C29.5823 332.741 18.1498 333.805 6.76477 335.399C3.81716 335.812 2.65208 337.336 3.74159 339.799C7.48568 348.265 22.1432 382.076 26.0411 391.15C25.5858 397.816 26.2007 405.663 25.7903 412.331C25.1902 422.061 24.4043 431.788 23.4624 441.491C20.092 476.2 14.9826 510.741 10.3658 545.299C8.05499 562.594 5.94819 579.914 3.8686 597.238C2.81846 605.993 1.92738 614.757 1.24148 623.549C0.95576 627.213 0.696558 630.879 0.468064 634.547L0.271102 637.8C-1.18483e-06 641.894 -0.625603 645.803 1.90078 649.317C3.04612 650.911 5.66202 651.809 7.16805 649.998C9.06138 647.722 9.76503 646.021 9.94597 643.031C10.0843 640.742 10.1174 638.442 10.2215 636.151C10.4462 631.185 10.7288 626.221 11.06 621.259C11.7204 611.342 12.4744 601.426 13.3477 591.525C16.4088 556.806 22.2266 522.348 26.0978 487.715C28.0491 470.255 29.4351 452.762 30.1689 435.206C30.5361 426.438 30.6691 417.672 30.5828 408.897C30.5503 405.619 30.3954 402.356 30.1713 399.101C35.9707 412.313 42.0676 425.397 48.4417 438.307L49.9526 441.364C53.9921 449.524 58.1402 457.715 62.995 465.408L63.8293 466.719C65.7964 469.844 68.4833 474.771 72.0699 475.757C74.5682 476.444 77.621 475.96 80.1825 475.911C82.7245 475.862 85.2694 475.852 87.8097 475.749C90.6591 475.634 93.3779 475.258 96.1316 474.513C96.5893 474.39 97.0221 474.256 97.4164 474.085C100.191 478.638 104.905 482.106 109.724 484.126C113.585 485.744 117.631 486.853 121.684 487.88L123.114 488.24C127.459 489.325 132.429 489.841 134.88 494.049L135.449 495.024C137.271 498.128 139.019 500.854 142.034 503.079C145.28 505.475 149.125 506.982 152.955 508.154C156.877 509.355 160.891 510.274 164.873 511.258L165.958 511.528C168.587 512.188 171.24 512.794 173.853 513.512C174.968 513.818 176.103 514.133 177.197 514.51C178.477 514.951 179.408 515.64 180.419 516.39C181.327 519.572 185.209 521.3 188.4 521.078C190.077 520.962 191.58 520.391 192.949 519.555C195.337 521.594 197.966 523.42 200.401 525.308C203.81 527.953 207.232 530.579 210.673 533.181C217.769 538.544 224.918 543.836 232.142 549.024C244.964 558.233 258.064 567.019 271.388 575.481C276.943 579.009 282.535 582.531 288.183 585.969L287.58 586.193L286.385 586.646C283.559 587.704 280.41 589.413 279.863 592.719C279.429 595.341 280.889 597.148 283.471 597.469C286.539 597.849 288.927 595.675 290.837 593.6C291.68 592.685 292.624 591.834 293.432 590.892C293.761 590.507 294.014 590.064 294.237 589.599C299.81 592.892 305.443 596.075 311.165 599.051L312.598 599.791C326.787 607.067 340.598 615.038 354.908 622.107C358.641 623.951 363.192 625.946 367.936 627.307C366.677 632.201 366.696 637.573 366.665 642.539C366.634 647.378 374.304 647.355 374.142 642.539L374.064 640.213C373.924 636.301 373.696 632.241 372.771 628.435C386.748 630.76 400.712 625.708 403.311 624.191C406.181 622.518 408.786 619.84 410.953 617.356C415.592 612.039 418.811 605.666 421.667 599.255C427.784 585.524 432.119 570.848 435.287 556.17C446.97 502.054 441.945 444.133 422.973 392.258C418.233 379.297 412.637 366.622 406.225 354.405L405.428 352.895C399.029 340.814 391.917 328.779 382.883 318.498C373.473 307.79 361.866 299.462 349.227 292.998C343.059 289.843 336.713 287.109 330.226 284.686C329.185 284.297 328.136 283.947 327.084 283.615C320.325 279.293 312.121 275.159 303.914 275.322C303.357 275.332 302.905 275.544 302.568 275.864C302.172 275.933 301.777 276.017 301.381 276.133C300.506 276.387 299.583 277.349 299.708 278.336L299.75 278.664C299.774 278.825 299.803 278.98 299.853 279.131C299.559 279.175 299.271 279.245 298.989 279.341C291.138 277.118 283.412 273.717 275.75 270.974L274.005 270.356C267.588 268.101 261.004 265.891 255.74 261.428C250.503 256.988 246.565 251.237 243.718 245.02C240.21 237.36 238.64 229.062 235.76 221.199ZM78.5581 625.187C77.0036 624.027 75.1652 625.373 74.5834 626.809C72.6735 631.519 73.6173 638.84 76.3094 643.005C79.0992 647.321 85.7767 645.617 85.9381 640.39C86.1066 634.939 82.9467 628.463 78.5581 625.187ZM62.4996 495.102C62.36 494.489 61.4116 494.495 61.2697 495.102C59.9754 500.629 60.0055 506.582 59.6255 512.25L59.5815 512.879C59.1256 519.129 58.7425 525.396 58.4693 531.657C57.933 543.976 57.292 556.295 56.5736 568.604C56.217 574.708 55.835 580.811 55.4276 586.912C54.1516 586.199 52.8372 585.573 51.4748 585.02C49.4337 584.193 47.4464 584.098 45.2532 584.121C42.5824 584.148 40.5714 586.504 40.9249 589.128C41.3105 591.985 43.8193 593.21 46.4246 592.802C49.3101 592.349 52.208 591.647 55.1214 591.357C54.7967 596.074 54.4615 600.79 54.1061 605.504C53.6348 611.745 53.0205 617.978 52.5889 624.221C52.5475 624.816 52.5031 625.413 52.4576 626.011C50.7204 625.105 48.8755 624.641 46.7847 624.07L46.2407 623.917C43.2051 623.043 39.9575 621.834 37.1477 623.881C35.2591 625.257 34.8819 627.522 36.4465 629.337C38.8187 632.091 42.3287 631.557 45.6055 631.417L47.3683 631.352C49.0297 631.287 50.5625 631.18 52.0981 630.76C51.816 634.827 51.6676 638.909 52.1649 642.917C52.4339 645.083 55.2775 645.652 56.0302 643.441C57.9962 637.667 58.4025 631.439 59.1221 625.39C59.794 619.741 60.2025 614.051 60.6426 608.376L60.7759 606.674C61.7658 594.19 62.5575 581.7 63.1358 569.19C63.7147 556.683 64.0624 544.178 64.2007 531.657C64.2636 525.973 64.1696 520.267 63.9477 514.583L63.8773 512.879C63.6219 507.033 63.8004 500.829 62.4996 495.102ZM322.329 626.108C322.254 625.31 321.616 624.317 320.667 624.441C319.792 624.555 318.891 624.5 318.026 624.645C316.884 624.835 315.965 625.511 314.903 625.937C313.177 626.629 311.296 626.987 309.525 627.553C306.202 628.616 304.392 632.123 305.768 635.399C307.215 638.842 310.85 639.623 313.992 638.178C316.468 637.04 318.314 635.22 319.979 633.113L320.451 632.512C321.168 631.607 321.983 630.597 322.284 629.501C322.576 628.432 322.432 627.195 322.329 626.108ZM160.907 609.921C156.768 609.337 153.234 610.755 149.404 612.093L149.093 612.201C145.196 613.55 139.51 614.484 137.512 618.484C136.307 620.896 137.243 624.099 140.079 624.813C144.57 625.942 148.597 622.651 152.311 620.435L152.506 620.319C156.091 618.214 159.791 616.444 162.079 612.812C162.69 611.843 162.16 610.098 160.907 609.921ZM305.372 279.89C307.03 280.262 308.688 280.591 310.344 280.908C316.644 284.294 322.76 287.808 329.264 290.825C336.166 294.026 343.042 297.333 349.598 301.205C362.842 309.029 373.761 319.202 382.783 331.671C398.367 353.21 409.959 378.049 418.256 403.252C420.387 409.727 422.295 416.275 423.982 422.878C420.999 420.111 417.466 418.41 413.505 416.953C411.827 416.336 409.737 417.381 408.886 418.838C408.503 419.493 408.288 420.14 408.327 420.908C408.415 422.603 409.515 424.528 411.33 424.864C415.562 425.646 419.677 427.168 423.758 428.508C424.376 428.712 424.908 428.635 425.332 428.395C429.383 445.602 431.918 463.163 432.815 480.83C433.574 495.786 433.106 510.86 431.454 525.796C430.185 525.224 428.943 524.687 427.551 524.362C425.746 523.941 423.97 523.429 422.209 522.85C417.128 521.179 414.81 529.591 420.004 530.873C421.937 531.351 423.881 531.747 425.851 532.037C427.567 532.289 429.086 532.178 430.704 531.913C429.468 541.231 427.779 550.482 425.628 559.601L425.153 561.596C422.359 573.244 419.102 584.999 414.393 596.006C412.083 601.405 409.024 606.533 405.247 611.035C403.392 613.248 401.332 615.146 399.087 616.943C397.217 618.441 390.861 621.687 383.334 621.687C375.807 621.687 373.77 620.973 369.972 619.662C362.462 617.07 355.332 612.932 348.289 609.246L347.56 608.866C344.446 607.25 341.343 605.611 338.249 603.957C338.64 600.794 337.956 598.137 336.312 595.215C334.535 592.054 330.133 593.628 329.805 596.861L329.795 596.985C329.745 597.713 329.623 598.456 329.472 599.197C308.782 587.832 288.53 575.671 268.6 562.998C255.763 554.834 243.062 546.427 230.546 537.775C224.29 533.449 218.088 529.046 211.947 524.556C208.73 522.204 205.529 519.833 202.341 517.442C201.014 516.446 199.712 515.4 198.382 514.398C198.705 513.993 199.02 513.588 199.325 513.187C204.293 506.664 207.516 498.89 209.122 490.869C210.092 486.029 210.56 481.005 210.703 476.071L210.766 473.925C210.864 470.31 210.889 466.527 210.225 463.025C211.129 463.523 212.053 464.011 212.974 464.534C216.277 466.411 219.584 468.283 222.896 470.147C229.528 473.877 236.179 477.565 242.915 481.104C254.947 487.425 267.097 493.437 279.575 498.826L285.646 501.451C296.184 505.996 306.808 510.459 317.764 513.837C323.943 515.742 330.17 517.371 336.438 518.825L333.903 521.802C332.184 523.822 332.154 526.718 334.351 528.418C336.51 530.089 339.408 529.393 340.846 527.174L343.469 523.129C344.029 522.265 344.347 521.455 344.528 520.602C347.415 521.207 350.31 521.789 353.213 522.352L358.701 523.402C366.537 524.919 374.134 527.922 381.138 531.765C383.573 533.101 384.252 530.506 381.672 528.697C374.128 523.409 365.329 520.416 356.25 517.905L355.804 517.782C352.473 516.867 349.149 515.914 345.831 514.926C346.196 513.602 346.406 512.229 346.364 510.715C346.271 507.342 345.973 503.956 345.795 500.585C345.42 493.51 344.941 486.458 344.381 479.396C344.166 476.675 343.924 473.947 343.648 471.221C345.427 470.265 346.962 468.995 348.946 468.371L349.28 468.273C351.402 467.699 350.686 464.958 348.801 464.723C347.094 464.512 345.396 464.609 343.713 464.971C343.452 465.028 343.205 465.092 342.97 465.163C342.661 462.639 342.318 460.12 341.928 457.616C340.898 451 340.169 444.029 338.023 437.672C337.864 437.202 337.167 437.033 336.909 437.527C333.788 443.48 333.679 450.783 333.328 457.413L333.284 458.205C332.87 465.438 332.846 472.741 332.98 479.984C333.117 487.448 333.372 494.893 333.706 502.351C333.84 505.353 333.835 508.469 334.345 511.34C315.773 505.286 297.53 498.04 280.044 489.459C267.709 483.407 255.48 477.112 243.391 470.581C237.334 467.309 231.248 464.09 225.197 460.806C223.077 459.655 220.959 458.5 218.841 457.343L215.666 455.607C212.694 453.98 210.213 452.362 206.752 452.248C205.72 452.214 204.795 452.699 204.138 453.432C202.278 452.11 200.128 451.297 197.871 451.316C194.475 446.612 191.026 441.946 187.441 437.381L184.792 434.002C180.207 428.171 175.35 422.253 169.504 417.815C166.894 415.835 164.024 414.349 161.031 413.122C161.735 412.949 162.425 412.603 163.039 412.031C165.898 409.373 166.292 404.435 166.873 400.726C167.475 396.879 167.242 393.437 166.647 389.603C166.416 388.113 163.955 387.802 163.354 389.171C162.088 392.056 160.748 394.822 159.596 397.74L159.256 398.62C158.02 401.905 155.386 405.361 155.56 408.924C155.607 409.901 155.934 410.752 156.437 411.436C153.925 410.6 151.376 409.854 148.867 409.076C140.969 406.629 133.041 404.25 124.991 402.352C122.848 401.846 120.695 401.377 118.532 400.947C117.399 395.553 115.748 390.26 113.802 385.061C115.645 384.114 116.838 382.527 118.425 381.115C119.911 379.793 120.931 378.183 122.198 376.665C123.352 375.284 122.704 372.789 120.631 372.87L120.043 372.894C117.896 372.994 115.816 373.217 113.868 374.222L113.174 374.581C112.223 375.076 111.181 375.644 110.254 376.315C109.041 373.516 107.78 370.745 106.505 368.002L104.851 364.454C100.563 355.221 96.2865 345.636 90.9027 337.038C88.5092 333.216 85.3239 330.83 80.752 330.46C76.0441 330.08 71.1493 330.571 66.4349 330.74C60.9696 330.936 55.5059 331.169 50.0459 331.456C51.4455 329.986 52.7227 328.35 54.1282 326.939C56.4615 324.6 58.9266 322.382 61.5177 320.333C66.646 316.276 72.2846 312.934 78.1414 310.056C83.9993 307.177 90.0294 304.667 95.5284 301.11C99.0082 298.86 102.118 296.028 104.956 292.964C106.742 312.288 116.048 330.241 130.027 343.73C144.547 357.738 164.612 365.435 184.241 368.708C204.262 372.048 225.158 370.822 244.31 363.844C254.186 360.245 263.657 355.104 272.104 348.656C272.197 349.217 272.308 349.771 272.528 350.293C272.822 350.993 273.182 351.589 273.595 352.205L274.331 353.284C274.796 353.963 275.269 354.636 275.796 355.266C277.073 356.79 278.882 357.458 280.83 357.451C284.561 357.438 287.386 353.77 286.382 350.143C285.751 347.863 284.401 346.491 282.294 345.598C281.628 345.316 280.949 345.08 280.266 344.847L279.753 344.673C279.063 344.436 278.379 344.21 277.668 344.079C281.668 340.539 285.379 336.69 288.702 332.535C299.125 319.508 309.405 301.262 305.921 283.961C305.86 283.663 305.594 283.477 305.306 283.429C305.104 282.215 304.46 281.04 303.577 280.25C304.171 280.094 304.77 279.973 305.372 279.89ZM197.142 579.029C195.077 577.879 192.945 580.614 194.623 582.303L197.127 584.816C199.452 587.158 201.714 589.526 203.704 592.195L204.186 592.848C206.871 596.512 209.735 600.757 214.136 602.127C219.459 603.783 224.574 597.281 221.492 592.531C218.799 588.381 213.614 586.815 209.144 585.099C204.915 583.475 201.095 581.233 197.142 579.029ZM368.855 559.876C367.642 558.284 364.48 559.122 365.308 561.375C367.999 568.691 369.096 578.667 375.892 583.527C378.085 585.094 381.529 584.374 383.334 582.564C385.386 580.507 385.468 577.611 384.295 575.101C382.864 572.04 379.345 569.821 376.878 567.489L376.657 567.277C374.003 564.692 371.133 562.866 368.855 559.876ZM84.8035 568.295C82.6388 567.36 76.997 565.541 75.3251 567.694C75.247 567.773 75.1802 567.859 75.1264 567.954C74.7167 568.669 74.6557 569.676 75.1264 570.385C77.0747 573.321 79.1038 575.513 81.8739 577.603L82.1847 577.835C85.2003 580.058 88.0332 582.669 91.7075 583.672C96.8004 585.061 100.358 578.667 96.7809 574.933C93.8993 571.925 89.5003 570.364 85.682 568.686L84.8035 568.295ZM289.323 526.493C290.176 524.95 288.435 523.055 286.858 524.021C282.362 526.777 277.123 528.845 272.072 530.33C270.028 530.931 268.184 533.009 268.336 535.251L268.36 535.59C268.42 536.382 268.529 537.169 269.031 537.827C270.79 540.134 273.306 541.023 275.994 539.658C281.983 536.615 286.083 532.366 289.323 526.493ZM157.892 521.817C158.001 521.168 157.527 520.667 156.869 520.792C153.069 521.514 149.559 523.355 146.296 525.47C144.545 526.605 142.857 527.852 141.111 528.998C138.954 530.413 138.146 531.581 137.828 534.179C137.617 535.892 139.213 537.458 140.677 537.931C144.665 539.22 149.235 534.988 151.938 532.238L152.059 532.114C154.888 529.223 157.221 525.804 157.892 521.817ZM43.753 517.326C44.6193 514.98 41.6338 513.035 39.6813 514.187C37.843 515.272 35.8485 516.171 34.1143 517.414C32.5207 518.557 31.0677 519.91 29.5393 521.149L28.7841 521.748C25.9814 524.008 21.3551 529.596 25.3625 532.837C29.1766 535.922 34.2335 531.982 36.7935 529.101L36.972 528.898C38.4449 527.192 40.2608 525.338 41.3292 523.345C42.335 521.47 43.0174 519.317 43.753 517.326ZM81.3657 335.737C86.1428 336.667 88.0899 342.579 90.1015 346.434C94.8491 355.529 99.2152 364.792 103.6 374.066C104.95 376.919 106.265 379.794 107.591 382.663C107.672 382.888 107.776 383.109 107.898 383.327C110.615 389.194 113.413 395.021 116.684 400.589C113.691 400.027 110.682 399.548 107.662 399.171C107.815 396.32 105.868 392.504 104.905 390.104L104.825 389.902C103.624 386.825 102.365 381.98 99.2737 380.383C98.2437 379.852 97.1421 380.518 97.0629 381.655C96.8287 385.041 100.131 388.916 101.745 391.789C102.722 393.528 103.673 395.274 104.6 397.039C104.948 397.7 105.238 398.349 105.595 398.932C104.037 398.763 102.478 398.612 100.915 398.502L99.8958 398.432C94.0998 398.049 87.9439 397.94 82.7074 400.806C77.8487 403.464 75.3652 409.139 78.0343 414.307C81.3598 420.744 88.6824 421.598 95.1216 422.119C103.164 422.77 111.226 423.944 119.212 425.09C127.472 426.275 135.251 429.328 143.388 430.898C144.145 431.044 144.616 430.051 143.922 429.627C137.503 425.709 129.7 423.553 122.523 421.357L121.943 421.179C118.05 419.98 114.246 418.61 110.219 417.93C106.31 417.27 102.377 416.735 98.4341 416.329L98.0511 416.293C93.7101 415.928 82.6355 416.053 83.1035 409.608C83.4134 405.342 90.328 404.605 93.4843 404.554C107.956 404.322 122.531 408.174 136.284 412.301L139.354 413.224C144.986 414.923 150.626 416.671 156.151 418.663C162.413 420.92 167.346 424.439 171.907 429.256C176.964 434.596 181.861 440.057 187.107 445.218C190.414 448.471 193.764 451.667 197.141 454.836C197.904 455.826 198.514 456.904 198.937 458.301C199.651 460.662 199.487 462.857 199.217 465.282C198.537 471.406 198.387 477.594 197.535 483.7C196.745 489.356 195.64 495.22 193.298 500.467C192.371 502.545 191.164 504.586 189.789 506.411L188.68 507.857C188.196 508.485 187.655 509.173 187.087 509.819C186.253 508.8 185.047 508.136 183.645 508.302C180.666 508.654 178.324 508.57 175.401 507.883C173.138 507.352 170.894 506.73 168.642 506.154C164.219 505.023 159.756 503.994 155.378 502.695L154.626 502.467C151.364 501.464 148.101 500.207 145.385 498.095C142.231 495.641 141.261 492.1 138.924 489.039C133.934 482.502 123.153 482.639 115.853 480.848C109.648 479.327 103.678 476.926 99.3848 472.412L99.1343 472.143C99.3246 471.338 99.0159 470.429 98.2697 470.011L98.1071 469.921C97.8162 469.757 97.5028 469.69 97.1953 469.696C96.7968 469.109 96.4125 468.503 96.063 467.858C95.7756 467.326 95.0572 467.718 95.1512 468.243C95.2074 468.557 95.2854 468.863 95.3593 469.169C91.2004 468.097 86.6331 468.301 82.4105 468.304L76.9308 468.285C75.9825 468.273 74.5691 468.226 74.4434 468.168L74.3146 468.111C73.9729 467.962 74.458 468.208 74.2193 467.89C73.9562 467.54 73.6984 467.185 73.4441 466.828C72.5359 465.553 71.6767 464.241 70.8347 462.916C80.0111 465.26 89.5168 466.719 98.8864 467.935C108.938 469.241 119.123 470.147 129.265 470.157C132.061 470.159 132.035 465.927 129.265 465.821C118.526 465.41 107.843 464.84 97.1758 463.46C91.6596 462.745 86.1664 461.849 80.704 460.801C78.5952 460.397 76.4914 459.968 74.3927 459.515L72.8197 459.17C71.8328 458.952 69.0443 458.637 67.6843 457.722C67.417 457.261 67.1498 456.802 66.8849 456.341C67.0149 454.726 71.1115 454.942 72.0717 454.94C74.7946 454.934 77.5181 454.956 80.2417 454.963C85.6881 454.979 91.1339 454.932 96.5809 454.888C107.463 454.799 118.387 454.418 129.26 454.885C131.9 454.997 133.286 450.752 130.677 449.636C119.16 444.705 106.375 443.633 94.0774 442.117C87.6104 441.321 81.1398 440.401 74.8177 438.788L73.2546 438.389C69.2831 437.368 64.8974 436.123 61.5531 433.69C66.5798 431.651 72.8279 431.885 78.0383 431.596L78.437 431.573C85.733 431.123 93.042 430.893 100.352 430.883C115.308 430.862 130.269 431.393 145.209 432.104C145.583 432.122 145.661 431.528 145.297 431.449C129.941 428.089 114.335 426.47 98.6209 426.221C91.3025 426.105 83.9805 426.209 76.6682 426.533L73.9852 426.658C67.7506 426.927 60.8326 427 55.6165 430.775C54.8212 431.35 54.402 432.085 54.3364 432.862C47.3407 418.879 40.8797 404.603 34.3925 390.422C29.3494 379.396 24.4942 368.277 19.2671 357.336L17.575 353.797C15.3091 349.074 12.9877 344.351 10.4101 339.799C20.0489 338.507 29.7414 337.61 39.4398 336.923C48.277 336.297 77.1114 334.91 81.3657 335.737ZM85.6339 487.291C84.5347 486.679 82.8506 487.178 82.5798 488.537C82.3782 489.549 82.034 490.673 82.034 491.708C82.034 492.949 82.4763 494.297 82.7123 495.51C83.2545 498.3 83.9221 500.568 85.337 503.053C86.2222 504.609 88.0097 505.665 89.806 505.623C91.2287 505.59 92.4894 505.207 93.4656 504.103C94.6352 502.78 95.4381 500.835 94.7966 499.054C93.1161 494.387 90.0272 489.738 85.6339 487.291ZM318.78 482.636C316.208 478.118 310.111 474.081 304.791 474.481C296.802 475.081 295.172 485.868 302.906 488.442C307.53 489.98 313.89 488.4 317.935 485.868C319.025 485.186 319.425 483.768 318.78 482.636ZM400.887 467.202C401.471 466.35 400.506 465.377 399.635 465.569C397.705 465.994 395.624 466.18 393.733 466.757C391.796 467.348 389.922 468.327 388.003 469.002C383.985 470.413 379.693 471.121 375.804 472.825C374.249 473.507 373.027 475.764 373.17 477.429L373.207 477.818C373.293 478.644 373.436 479.364 373.896 480.119C375.134 482.146 377.586 483.193 379.9 482.569C384.194 481.413 388.389 478.442 392.05 475.973L392.726 475.523C394.326 474.466 396.045 473.361 397.334 472.001C398.679 470.581 399.785 468.81 400.887 467.202ZM253.301 450.772C253.795 448.987 251.581 447.808 250.29 449.014C247.711 451.423 245.014 453.658 242.488 456.128L242.318 456.297C240.51 458.12 237.878 461.632 240.23 463.991C243.245 467.014 247.443 462.529 249.06 460.191C251.111 457.227 252.341 454.239 253.301 450.772ZM55.9234 436.015C59.7497 440.079 65.6449 441.948 70.8353 443.496C76.9895 445.33 83.3306 446.426 89.6782 447.327C95.8117 448.197 101.898 448.976 107.934 449.975C103.368 450.032 98.8025 450.066 94.2471 450.147C88.9935 450.243 83.7427 450.357 78.4908 450.51C74.6657 450.621 70.1778 450.095 66.5431 451.521C65.8879 451.777 65.276 452.133 64.7414 452.566C61.6856 447.117 58.7569 441.593 55.9234 436.015ZM291.934 398.011C287.94 396.739 284.185 395.051 279.951 395.489C278.826 395.605 278.02 396.703 278.635 397.788C280.641 401.329 283.903 403.328 287.115 405.696L287.398 405.906C290.913 408.528 294.688 410.917 298.51 413.069C305.092 416.772 310.99 406.172 304.344 403.061C300.344 401.19 296.143 399.352 291.934 398.011ZM220.033 388.808C213.923 389.211 207.816 389.485 201.699 389.733C194.613 390.02 196.995 400.955 202.914 398.742C208.762 396.555 214.611 394.396 220.511 392.357C222.308 391.736 222.163 388.778 220.146 388.803L220.033 388.808ZM376.742 369.355C375.158 369.243 373.561 369.59 371.975 369.744L370.288 369.908C366.809 370.256 363.548 370.684 360.23 372.103C354.109 374.723 357.397 384.59 363.542 384.363C368.083 384.196 371.967 382.24 375.802 379.963C379.155 377.973 381.21 375.482 383.474 372.357C384.224 371.322 383.179 370.161 382.158 370.057C380.359 369.873 378.541 369.481 376.742 369.355ZM69.9076 349.204C70.9205 355.542 73.4347 361.482 77.2231 366.654C79.1271 369.253 82.4697 369.351 84.3565 366.654C87.0258 362.838 85.3799 358.467 83.3691 354.802L82.7741 353.728C81.8737 352.119 80.4908 349.772 78.9107 348.152L78.8841 347.986C78.0374 341.35 68.864 342.675 69.9076 349.204ZM317.031 308.529C315.508 307.153 312.703 307.567 312.208 309.806C311.516 312.941 311.095 316.474 311.548 319.657C311.794 321.382 311.886 323.319 312.562 324.926C313.29 326.655 314.689 327.984 316.007 329.284C318.638 331.879 324.185 331.021 324.89 326.932L324.979 326.431C325.334 324.496 325.787 322.429 325.262 320.511C324.866 319.065 323.98 317.589 323.248 316.247L323.093 315.962C321.626 313.221 319.338 310.611 317.031 308.529ZM102.928 315.2L102.377 315.206C98.125 315.29 90.3523 316.328 90.3109 321.596C90.301 322.838 91.2181 324.124 92.4474 324.41C94.9888 325.001 96.6314 323.495 98.4426 321.974C99.9238 320.73 101.65 319.737 103.444 319.021C105.381 318.249 105.254 315.196 102.928 315.2Z" fill="#12296C"/>
<path fill-rule="evenodd" clip-rule="evenodd" d="M89.465 160.607C93.173 133.781 101.654 107.734 102.871 80.5042C103.596 68.8522 104.32 57.1996 105.044 45.5464C105.319 38.2685 114.746 35.8131 118.347 42.2608C126.533 33.1579 141.19 34.4985 152.372 34.7749C218.2 37.114 280.755 81.7453 303.352 143.975C303.896 145.458 303.731 147.037 303.117 148.45C313.65 183.671 276.401 206.351 250.997 222.055C240.691 232.976 228.577 242.049 214.898 248.263C199.164 255.686 181.648 259.825 164.263 260.221C160.447 260.309 158.155 257.215 157.879 254.012C152.333 252.718 142.842 254.212 139.909 248.513C106.461 233.945 84.6678 197.02 89.465 160.607Z" fill="white"/>
<path fill-rule="evenodd" clip-rule="evenodd" d="M105.115 65.4695C105.21 64.5996 103.957 64.573 103.7 65.2774C101.58 71.0687 99.382 76.8203 97.7027 82.7581C96.0837 88.4806 94.9177 94.333 93.7369 100.161C91.7785 109.832 90.0945 119.574 88.7014 129.347C85.7242 127.016 81.8305 126.804 78.1639 128.618C76.4432 129.469 75.7845 131.719 76.1972 133.465C76.5284 134.865 76.9334 136.259 77.4194 137.624C76.3805 138.546 75.4977 139.683 74.8568 140.989C73.1686 144.428 73.7126 148.038 75.2269 151.318C75.1116 151.514 74.9975 151.711 74.8899 151.92C72.6979 156.188 73.8705 160.011 75.4723 164.176C76.6714 167.292 76.0021 170.801 78.589 173.154C79.4884 176.051 80.8377 178.746 82.802 181.18C83.2478 181.999 83.916 182.657 84.7089 183.141C84.9082 187.714 85.3895 192.27 86.2948 196.787C89.8101 214.326 100.967 229.953 114.778 240.975C128.292 251.761 144.164 258.206 161.291 260.289C169.607 261.301 177.935 260.982 186.183 259.537L187.211 259.354C194.821 257.97 204.031 255.678 209.294 249.92C212.061 246.893 210.443 240.229 205.55 240.858C202.958 241.191 200.702 241.608 198.261 242.567C196.358 243.316 194.451 244.037 192.496 244.647C188.753 245.816 184.882 246.727 180.996 247.231C172.899 248.28 164.485 248.003 156.481 246.42C141.927 243.54 127.787 236.899 116.742 226.899C103.904 215.276 96.3776 200.232 95.2701 182.881C94.0366 163.557 96.2617 143.769 98.1089 124.545C99.0698 114.545 100.29 104.565 101.758 94.6271C103.193 84.917 104.054 75.2205 105.115 65.4695ZM218.737 3.07072L218.115 2.9749C193.399 -0.796845 167.394 -0.529428 144.162 9.69894C139.709 11.661 135.351 14.0269 131.248 16.7722C128.308 16.4645 125.352 16.2148 122.449 16.1739C118.795 16.1259 115.229 18.0293 114.78 21.7352C111.356 22.1621 108.204 23.4251 106.188 25.9517C105.402 26.9354 104.876 28.0738 104.609 29.2597C102.505 29.7584 100.441 30.5227 98.484 31.5307C96.1069 32.7581 94.7351 36.1735 95.5748 38.7001C95.7687 39.2736 95.9892 39.8323 96.2361 40.3789L96.4263 40.7866L96.3139 40.9408C94.4158 44.0004 95.7344 48.0147 98.6436 49.841C100.825 51.2107 103.262 52.3017 105.769 52.8294C105.562 53.8374 105.373 54.8514 105.219 55.8772C105.16 56.2928 105.691 56.5893 105.928 56.1796C105.329 58.0494 104.578 60.0142 103.675 62.0741C103.143 63.289 104.846 64.3682 105.496 63.1408C107.223 59.8677 108.294 56.5116 109.861 53.1378C111.309 53.0429 112.752 52.7108 114.141 52.0764C115.052 51.6613 115.743 50.9616 116.24 50.1256C116.27 50.1612 116.287 50.2027 116.317 50.2442C120.983 56.2626 130.101 58.3735 137.149 60.2769C144.717 62.3231 152.463 63.5855 160.238 64.5164C173.815 66.1352 187.498 66.4376 201.138 67.0667C202.042 67.1076 202.944 67.1533 203.846 67.1972C209.386 72.0712 216.523 75.1 223.843 76.0208C227.552 76.4869 231.94 76.3683 236.099 75.4184C237.604 76.9601 239.506 78.1021 241.583 78.6885C241.957 86.4555 246.276 93.8093 252.805 98.0957L252.689 98.5574C251.066 105.19 251.087 112.44 256.904 117.049C257.692 117.673 258.552 118.208 259.457 118.651L259.258 119.11C256.254 126.15 255.294 133.928 260.942 139.77C263.231 142.138 267.252 141.577 268.968 138.859L269.052 138.722C269.148 138.56 269.25 138.404 269.349 138.245C269.502 138.56 269.736 138.825 270.084 138.973C272.231 139.899 273.088 139.216 275.045 138.261C276.854 137.372 278.764 136.708 280.715 136.193C282.306 135.777 283.891 135.481 285.487 135.309C295.575 139.175 302.091 151.034 300.542 162.163C299.702 168.223 296.384 174.224 290.602 176.738C288.071 177.841 285.097 178.303 282.359 177.93C278.652 177.426 275.802 175.084 271.964 176.424C270.451 176.951 269.504 178.144 269.422 179.774C269.285 182.335 270.191 184.256 271.716 185.68C269.026 187.933 266.856 191.064 264.52 193.56C261.598 196.685 258.637 199.81 255.479 202.691C252.499 205.425 249.329 207.963 245.971 210.216L245.618 210.449C241.41 213.197 236.108 215.637 235.907 221.382C235.842 223.113 236.889 224.702 238.308 225.585C243.611 228.882 249.383 224.553 253.54 221.382C255.213 220.106 256.839 218.784 258.406 217.414C259.453 217.497 260.594 217.326 261.782 216.798C262.545 216.465 263.29 216.074 264.023 215.659C266.406 216.258 268.653 215.73 270.504 214.479C273.171 215.137 275.997 215.214 278.398 214.687C280.591 214.2 282.549 213.163 284.163 211.769C287.533 212.848 291.276 212.647 294.599 210.601C296.592 209.374 298.147 207.625 298.993 205.579C299.423 204.903 299.699 204.115 299.719 203.246L299.72 202.917C302.617 202.982 305.521 201.986 307.762 199.686C309.819 197.574 310.824 194.942 310.937 192.267C313.852 191.438 316.519 189.735 318.547 187.109C321.905 182.756 322.354 177.378 320.628 172.575C320.741 172.32 320.841 172.06 320.93 171.799C323.608 168.01 325.376 163.438 325.234 158.855C325.217 158.143 325.122 157.444 324.98 156.75C327.617 155.344 329.557 152.878 329.764 149.741C329.923 147.28 329.042 144.873 327.452 143.052C328.226 141.197 328.569 139.181 328.333 137.165C328.09 135.095 327.363 133.298 326.298 131.799C326.322 131.253 326.293 130.701 326.204 130.138C326.311 129.587 326.399 129.017 326.446 128.437C326.949 122.08 322.574 116.518 317.246 113.583C315.845 112.812 314.331 112.184 312.817 111.65C311.717 111.259 310.062 111.128 309.092 110.411C309.133 110.381 308.731 109.86 308.66 109.581C308.583 109.237 308.501 108.899 308.459 108.549C308.3 107.078 308.418 105.566 308.447 104.09C308.578 97.3895 308.371 90.6596 307.667 83.9948C306.36 71.6378 303.137 59.5475 296.858 48.7499C291.59 39.7015 284.376 32.0584 276.104 25.7198C259.627 13.1002 239.065 6.23858 218.737 3.07072ZM295.097 156.744C297.242 151.575 287.144 151.524 284.474 151.769L284.395 151.777C278.386 152.376 268.991 155.275 266.532 161.355C265.515 163.872 268.527 166.601 270.938 165.773C273.298 164.963 274.621 163.223 276.515 161.701C277.012 161.301 277.53 160.928 278.057 160.568C277.78 161.455 277.335 162.275 276.718 162.887L276.573 163.024C273.665 165.644 278.865 169.761 280.795 166.292C281.823 164.446 282.234 162.42 281.914 160.324C281.819 159.706 281.653 159.14 281.412 158.6C281.604 158.504 281.793 158.4 281.987 158.308L282.333 158.146C284.647 157.093 294.523 152.959 294.443 156.656C294.435 157.065 294.964 157.065 295.097 156.744Z" fill="#12296C"/>
<path fill-rule="evenodd" clip-rule="evenodd" d="M156.185 213.572C160.16 211.945 163.707 209.233 166.3 205.768C167.201 204.564 167.435 203.292 167.246 202.128C167.033 200.82 166.261 199.634 165.209 198.839C164.153 198.041 162.833 197.648 161.556 197.849C160.446 198.023 159.342 198.632 158.468 199.895L158.285 200.148C156.744 202.239 154.735 203.955 152.446 205.061C150.24 206.127 147.773 206.625 145.22 206.335C140.357 205.785 137.005 203.147 133.443 199.566C133.001 199.114 132.559 198.648 132.115 198.174C131.835 197.744 131.446 197.468 131.014 197.323C130.534 197.163 129.992 197.172 129.495 197.346C129.015 197.513 128.587 197.831 128.299 198.254C128.026 198.657 127.871 199.153 127.922 199.725C128.248 203.436 130.183 206.748 132.931 209.349C135.984 212.238 140.03 214.236 143.84 214.937C148.036 215.709 152.313 215.156 156.185 213.572ZM141.86 156.317C137.395 159.038 130.591 165.385 135.395 172.132C141.049 178.081 149.189 171.26 153.201 168.175C156.92 165.784 161.1 171.933 157.649 174.725C128.661 196.246 116.897 157.028 139.601 153.117C142.101 152.686 143.029 155.475 141.86 156.317ZM193.806 131.282C193.312 125.141 183.986 123.747 183.058 129.823C182.227 135.267 183.205 140.267 185.65 145.168C187.987 149.85 193.859 147.665 194.303 143.402C194.898 137.687 194.113 135.102 193.806 131.282ZM122.812 128.563C121.512 126.856 119.635 125.69 117.385 126.349C110.358 128.408 112.429 138.413 114.897 143.283C116.238 145.927 120.573 146.598 122.532 144.269C125.725 140.472 127.254 132.889 123.195 129.149C123.085 128.955 122.963 128.76 122.812 128.563ZM185.749 104.412L184.639 104.217C181.205 103.622 176.935 103.049 174.506 105.818C173.218 107.286 172.774 110.015 174.506 111.42C177.552 113.893 180.92 112.934 184.571 113.144C187.58 113.317 190.471 113.816 193.369 114.647C199.727 116.469 204.907 119.795 210.337 123.448C211.049 123.927 211.777 123.013 211.437 122.345C208.302 116.189 202.228 111.131 196.143 108.049C192.896 106.403 189.342 105.038 185.749 104.412ZM129.219 101.654L128.369 101.829C119.123 103.767 107.11 107.638 102.731 116.746C102.564 118.033 102.741 118.309 102.884 118.49L102.932 118.55C103.05 118.704 103.144 118.916 103.701 119.091C103.855 119.054 104.011 119.015 104.169 118.974C106.176 118.446 107.764 117.72 109.301 116.966L110.968 116.142C112.902 115.191 114.853 114.275 116.92 113.599C121.333 112.156 125.871 111.139 130.48 110.596C131.479 110.478 132.441 110.14 133.2 109.561C133.92 109.011 134.47 108.25 134.721 107.237C135.046 105.928 134.953 104.936 134.252 103.754C133.725 102.867 132.971 102.252 132.105 101.898C131.222 101.538 130.217 101.453 129.219 101.654Z" fill="#12296C"/>
<path fill-rule="evenodd" clip-rule="evenodd" d="M88.9405 159.928C96.1195 167.367 108.104 169.501 117.655 165.512C142.18 155.237 130.176 123.188 111.262 114.581C108.899 113.991 105.743 112.589 102.866 112.272C102.605 112.144 102.039 112.514 101.352 112.164C80.4968 114.499 75.7475 146.964 88.9405 159.928ZM168.043 161.832C176.095 172.541 191.064 175.845 203.294 170.867C227.456 161.325 218.886 132.906 202.355 121.764C167.435 108.606 153.015 142.086 168.043 161.832ZM220.42 138.103C220.443 138.093 220.465 138.087 220.488 138.077C220.36 138.02 220.233 137.964 220.105 137.907C220.147 138.015 220.192 138.122 220.232 138.231C220.295 138.188 220.35 138.137 220.42 138.103ZM72.318 126.527C74.2894 126.531 77.1371 126.856 78.7691 128.228C82.7934 114.618 97.648 102.022 110.567 111.207C120.74 114.487 128.289 121.764 132.579 131.437C140.315 126.823 152.479 128.793 159.188 134.895C163.581 120.338 174.394 115.24 187.263 114.487C201.31 112.18 215.311 125.86 219.679 136.835C223.311 136.42 228.739 135.261 232.156 137.509C254.334 131.676 293.108 128.461 297.617 131.701C300.83 132.938 302.593 140.543 298.105 140.953C294.194 140.396 298.562 135.381 294.619 134.833C273.615 133.528 253.224 137.77 232.442 139.55C230.586 142.052 224.591 142.89 221.393 141.884C226.43 160.5 215.556 173.166 199.263 176.959C174.034 182.771 152.084 160.139 158.682 136.599C151.039 132.786 142.248 132.95 133.923 134.958C147.835 186.302 65.3744 183.998 78.2534 129.987C69.6826 134.262 67.8212 127.39 72.318 126.527Z" fill="#12296C"/>
</svg>
