<svg width="405" height="599" viewBox="0 0 405 599" fill="none" xmlns="http://www.w3.org/2000/svg">
<path fill-rule="evenodd" clip-rule="evenodd" d="M5.9505 605.838C76.4291 616.549 148.186 617.087 219.25 613.198C247.375 611.091 275.586 610.712 303.687 613.405C320.293 614.641 393.1 620.209 399.048 605.329C395.304 526.091 387.722 446.179 364.46 369.972C354.894 342.912 346.677 320.454 328.006 298.062C322.122 291.948 309.431 279.126 302.16 274.944C295.86 271.321 293.227 272.614 289.61 266.495C286.015 259.736 283.364 248.448 278.26 243.678C273.063 238.822 265.361 240.56 255.815 242.124C257.569 218.412 246.63 212.373 231.559 207.864C205.069 197.749 178.907 202.831 172.239 235.095C159.877 235.095 152.933 240.418 145.426 245.532C142.357 247.623 144.491 252.95 140.826 254.593C134.044 257.009 122.059 256.417 115.529 259.39C85.8351 272.911 59.3875 292.517 42.0187 321.152C3.07992 382.287 -23.668 511.069 -19.0394 583.528C-21.0674 586.709 -18.2631 591.272 -17.5503 594.693C-16.6505 597.67 -13.7368 599.649 -10.696 599.311C-6.4526 603.877 0.110738 604.893 5.9505 605.838Z" fill="white"/>
<path fill-rule="evenodd" clip-rule="evenodd" d="M297.672 273.151C297.239 272.91 297.62 272.291 298.055 272.496C318.957 282.306 334.991 299.519 346.274 319.406C357.956 339.998 364.615 363.377 370.356 386.229L370.563 387.054C376.684 411.499 381.889 436.197 386.575 460.955C391.32 486.027 395.129 511.255 398.194 536.586C399.71 549.111 401.061 561.658 402.115 574.23C402.642 580.513 403.12 586.8 403.55 593.09C403.722 595.606 403.884 598.122 404.022 600.64L404.122 602.529C404.208 604.242 404.411 605.959 403.988 607.649C403.623 609.106 402.852 610.425 402.174 611.763C400.833 614.406 397.156 613.971 395.711 611.763L395.291 611.119C394.333 609.637 393.537 608.26 393.236 606.416C392.945 604.63 392.934 602.758 392.804 600.955C392.564 597.636 392.359 594.314 392.126 590.994C391.637 584.005 391.087 577.021 390.479 570.042C389.275 556.264 387.984 542.499 386.399 528.759C383.582 504.341 380.047 479.987 375.879 455.764C371.807 432.1 366.66 408.676 361.29 385.282L360.734 382.862C351.331 342.017 336.84 294.979 297.672 273.151ZM75.041 433.091C75.1947 432.682 75.8561 432.588 75.9678 433.091C77.3758 439.433 77.515 445.966 77.7302 452.459C77.9422 458.865 77.9336 465.3 77.8403 471.71C77.4961 495.266 76.8498 518.802 76.2909 542.354C76.0115 554.136 75.7493 565.918 75.5481 577.701C75.472 582.12 75.4081 586.539 75.3549 590.959L75.2899 596.787C75.2576 599.364 75.1899 601.91 74.8759 604.484C74.6687 606.177 74.2274 607.792 73.2931 609.244C72.63 610.274 71.6849 610.797 70.7638 611.497L70.5914 611.631C69.4165 612.559 68.179 612.566 67.0153 611.631L66.6774 611.363C65.5659 610.493 64.6052 609.814 63.8956 608.438C62.9084 606.526 62.7503 604.449 62.5825 602.341C62.3279 599.146 62.4967 595.904 62.5297 592.699C62.5955 586.271 62.6845 579.844 62.7972 573.416C63.211 549.845 64.0288 526.269 65.5194 502.74C66.2216 491.657 67.1737 480.538 68.4508 469.5L68.6941 467.431C69.0815 464.183 69.4348 460.878 69.8329 457.562C63.8896 453.379 58.6655 448.304 54.2105 442.548C53.8825 442.124 54.4225 441.53 54.8185 441.94C59.3705 446.656 64.5899 450.415 70.3681 453.371C71.3149 446.429 72.6166 439.525 75.041 433.091ZM174.331 222.974C174.413 222.911 174.54 222.884 174.618 222.974C175.895 224.465 175.636 226.743 175.677 228.631L175.682 228.807C175.774 231.568 175.791 234.32 175.782 237.082L175.753 245.875C175.749 247.084 175.651 248.343 175.713 249.559L175.746 250.03C176.417 250.717 176.729 251.711 176.501 252.709C176.46 253.989 175.791 255.058 174.815 255.729L176.907 258.698L179 261.665C183.315 267.789 187.678 273.858 192.225 279.813C196.861 285.884 201.807 291.727 206.982 297.345C209.511 300.09 212.083 302.797 214.714 305.443C215.783 306.519 216.879 307.567 217.963 308.628L219.042 309.694C219.679 310.331 220.48 310.962 220.903 311.77C221.152 312.247 221.209 313.421 221.298 313.615C222.096 315.371 220.734 318.171 218.47 317.295L218.573 317.226C218.985 316.94 218.721 316.935 217.78 317.214C217.187 317.212 216.631 317.076 216.111 316.805L215.956 316.72C215.224 316.348 214.57 315.627 213.976 315.051L213.828 314.911C212.468 313.636 211.172 312.284 209.869 310.951C207.148 308.171 204.489 305.331 201.915 302.416C196.779 296.598 191.91 290.545 187.299 284.304C182.603 277.947 178.237 271.264 174.483 264.307C173.059 261.666 171.753 258.975 170.5 256.253C168.063 255.47 167.497 252.876 167.667 249.955C166.768 247.859 165.958 245.721 165.479 243.536C165.413 243.237 165.798 242.954 166.028 243.216C166.808 244.102 167.53 245.046 168.223 246.014C168.642 243.965 169.172 242.08 169.421 240.878L170.502 235.573C164.413 235.256 157.74 237.759 153.543 242.14C153.317 243.281 152.44 244.098 151.584 245.165C150.607 246.384 149.754 247.752 149.118 249.183C147.707 252.354 148.503 257.028 145.765 259.355C145.48 259.597 145.161 259.766 144.832 259.87C146.131 266.243 145.542 273.266 145.513 279.731L145.512 280.3C145.519 287.537 145.277 294.779 144.998 302.01L144.713 309.166C144.345 318.709 144.106 328.258 145.033 337.749C149.265 333.999 153.641 330.42 158.168 327.01C161.144 324.768 164.18 322.605 167.271 320.524L169.783 318.844C172.793 316.825 175.876 314.747 179.171 313.301C183.482 311.41 187.58 312.06 191.742 314C195.886 315.931 199.907 318.175 203.972 320.269C208.106 322.398 212.249 324.509 216.39 326.625C219.132 328.027 223.151 329.293 225.163 331.874C225.291 331.303 225.441 330.733 225.616 330.166C225.416 329.301 225.493 328.366 225.978 327.475C232.738 315.048 238.992 302.325 245.202 289.617C248.346 283.186 251.334 276.679 254.484 270.251L257.545 263.992C258.057 262.949 258.57 261.907 259.086 260.866C259.858 259.309 260.663 257.766 261.444 256.212C261.774 255.556 262.188 254.903 262.509 254.241L262.661 253.908C262.669 253.891 263.41 251.557 262.837 251.78L262.788 251.803C262.496 251.969 262.262 251.601 262.451 251.366C263.261 250.364 264.39 251.252 264.852 252.18C266.126 254.733 263.792 258.741 262.894 261.186L262.845 261.323C260.058 269.214 256.904 276.956 253.671 284.672C247.473 299.465 240.815 314.03 234.172 328.621L234.093 328.872C235.509 327.786 237.022 326.8 238.317 325.84C241.585 323.418 244.948 321.116 248.306 318.821C254.463 314.612 260.788 310.68 267.217 306.904L268.504 306.151C271.715 304.279 274.896 302.761 278.708 303.323C282.25 303.845 285.542 305.748 288.741 307.294L289.072 307.453L298.958 312.155C297.901 307.939 296.757 303.743 295.563 299.562C293.235 291.408 290.673 283.323 287.894 275.31C285.3 267.823 282.494 260.418 279.527 253.072L278.634 250.867C277.424 247.842 276.221 244.544 272.764 243.613C269.309 242.682 265.345 244.062 262.187 242.092C261.9 241.913 261.936 241.439 262.284 241.352L264.232 240.86C267.891 239.95 272.18 239.034 275.64 239.919C279.405 240.884 282.52 244.046 284.347 247.332C286.378 250.988 287.81 255.08 289.351 258.978L289.595 259.592C291.364 264.004 293.066 268.442 294.694 272.909C297.949 281.836 300.912 290.871 303.594 299.987C304.887 304.381 306.113 308.795 307.292 313.221C307.631 314.493 308.19 316.037 308.648 317.646C309.174 318.159 309.671 318.731 310.138 319.384C310.912 320.466 310.356 321.736 309.394 322.384C309.357 323.492 309.11 324.533 308.522 325.426C306.227 328.912 300.159 328.014 300.405 323.328C300.442 322.61 300.722 321.925 301.145 321.347L301.133 321.253L301.085 321.081C300.031 320.576 298.973 320.013 297.858 319.462L287.483 314.333C284.478 312.847 281.148 310.551 277.806 309.985C274.691 309.457 271.404 311.779 268.728 313.18L268.554 313.27C262.083 316.589 255.66 320.017 249.263 323.474C246.14 325.162 243.057 326.92 239.946 328.627C237.345 330.055 234.537 332.105 231.613 332.911C230.365 333.883 228.881 333.753 227.689 333.018C228.234 336.394 228.2 339.859 228.367 343.311C228.592 347.925 228.627 352.552 228.701 357.173L228.731 358.906C228.927 369.121 229.033 379.339 229.071 389.556C229.21 425.94 228.808 462.334 228.714 498.717C228.666 516.997 228.304 535.293 227.83 553.566C227.628 561.309 227.208 569.043 226.753 576.774L226.503 580.991C225.974 589.889 225.661 598.885 224.015 607.663C223.8 608.808 221.864 608.837 221.674 607.663C220.158 598.257 220.074 588.645 219.783 579.129L219.721 577.227C219.371 567.01 219.205 556.799 219.241 546.576C219.37 510.178 220.316 473.803 221.089 437.415C221.478 419.133 221.74 400.842 222.344 382.566C222.646 373.421 222.988 364.282 223.394 355.141C223.575 351.059 223.75 346.982 224.021 342.907L224.143 341.16C224.227 340.021 224.295 338.895 224.378 337.78C220.697 339.125 217.33 336.635 214.019 334.931C210.203 332.967 206.388 331 202.571 329.039L198.75 327.082L191.103 323.179C187.66 321.421 185.008 319.671 181.336 321.733C168.106 329.159 155.949 339.04 144.932 349.408C142.82 351.396 138.356 350.862 137.821 347.529C135.535 333.293 136.925 318.851 138.092 304.572L138.522 299.27C139.044 292.938 139.611 286.607 140.368 280.3C140.706 277.48 141.043 274.66 141.416 271.845L141.703 269.734C142.169 266.397 142.474 263.079 143.467 259.879C143.154 259.777 142.852 259.611 142.582 259.355C139.595 256.519 141.035 251.598 142.399 248.225C143.745 244.895 145.797 241.989 148.368 239.488C148.928 238.942 149.719 238.59 150.513 238.572C156.745 234.441 163.582 232.379 170.698 234.634C170.898 233.678 171.102 232.723 171.317 231.771L171.535 230.82C172.089 228.457 172.294 224.555 174.331 222.974ZM238.207 596.058C240.141 595.526 242.259 596.087 243.676 597.505C245.092 598.923 245.653 601.041 245.12 602.976C244.854 603.928 244.372 604.755 243.676 605.457C243.025 606.104 242.265 606.566 241.397 606.843L241.195 606.903L240.879 607.035C239.91 607.296 238.94 607.296 237.971 607.035C237.044 606.775 236.24 606.306 235.557 605.628C234.879 604.945 234.41 604.14 234.15 603.212C233.889 602.242 233.889 601.272 234.15 600.302L234.282 599.986C234.548 599.033 235.03 598.206 235.727 597.505C236.428 596.808 237.255 596.325 238.207 596.058ZM353.043 403.239C353.361 402.875 353.876 403.342 353.679 403.73C350.666 409.639 347.309 415.505 344.009 421.264C344.273 422.86 344.535 424.443 344.837 425.986C346.122 432.563 347.697 439.022 348.724 445.662C352.413 469.529 354.329 493.655 355.973 517.737C357.621 541.904 357.832 566.083 358.08 590.298C358.102 592.397 356.488 594.836 354.326 595.231C353.336 595.412 352.595 595.377 351.608 595.231C349.357 594.9 347.95 592.321 347.853 590.298C347.208 576.764 346.34 563.248 345.335 549.736C343.552 525.779 342.463 501.761 341.023 477.78L340.516 469.398C339.972 460.316 339.474 451.228 339.312 442.133C339.204 436.107 339.526 430.083 339.328 424.064C339.145 418.508 338.582 412.466 339.807 407.006C339.852 406.802 340.175 406.75 340.268 406.946C341.542 409.627 342.348 412.542 342.97 415.517C346.251 411.365 349.592 407.204 353.043 403.239ZM138.121 256.456C138.582 256.423 138.564 257.116 138.121 257.167C131.682 257.914 125.462 260.536 119.382 262.764L118.861 262.954C112.719 265.184 106.73 267.777 100.967 270.867C89.6993 276.91 79.3523 284.702 70.204 293.622C33.6794 329.23 17.0342 380.579 4.8374 428.833C-1.93938 455.643 -6.75844 482.906 -9.88196 510.378C-11.4264 523.965 -12.5183 537.603 -13.1549 551.262C-13.4807 558.263 -13.6863 565.27 -13.7721 572.277C-13.8163 575.867 -13.8292 579.457 -13.8249 583.047C-13.8228 584.692 -13.5293 586.763 -13.969 588.36C-14.3768 589.839 -15.5269 591.142 -16.3777 592.375C-17.3859 593.838 -19.198 593.761 -20.2203 592.375L-20.5973 591.871C-21.6876 590.424 -22.7543 589.04 -22.9101 587.149C-23.0768 585.122 -22.9592 583.032 -22.9667 580.995C-22.984 576.893 -22.9333 572.79 -22.8513 568.688C-22.6932 560.826 -22.3836 552.968 -21.9234 545.117C-20.989 529.187 -19.451 513.288 -17.2489 497.483C-13.3345 469.389 -7.4673 441.564 0.217943 414.261C7.46838 388.505 16.0578 362.825 28.294 338.967C39.6551 316.815 54.5595 296.208 74.2263 280.727C83.3719 273.528 93.3278 267.528 104.062 263.01C109.475 260.731 115.16 258.871 120.941 257.81C126.659 256.762 132.351 256.908 138.121 256.456ZM239.316 550.532C240.337 550.525 241.476 550.749 242.352 551.314L243.522 552.22C243.839 552.627 244.155 553.036 244.47 553.446C245.202 554.401 245.299 555.945 245.146 557.082C245.112 557.842 244.886 558.548 244.47 559.202L243.578 560.357C242.722 561.056 242.007 561.555 240.97 561.891C240.428 562.066 239.906 562.103 239.385 562.076L239.211 562.065L239.316 562.079L239.133 562.059C238.964 562.044 238.794 562.026 238.623 562.003C238.507 561.988 238.391 561.979 238.275 561.963C238.163 561.954 238.055 561.95 237.943 561.96C236.624 562.084 235.299 561.336 234.363 560.477C233.519 559.702 232.763 558.06 232.88 556.895L232.93 556.409C233.019 555.588 233.092 555.265 233.44 554.441C233.777 553.639 234.249 552.931 234.892 552.333C236.122 551.188 237.628 550.544 239.316 550.532ZM235.234 490.468C236.984 488.56 239.99 488.419 242.16 489.573C242.689 489.855 243.174 490.307 243.64 490.683C244.815 491.633 245.276 493.347 245.341 494.791C245.405 496.219 244.652 497.914 243.64 498.899L243.395 499.137C242.79 499.726 241.924 500.237 241.078 500.393C239.713 500.644 238.568 500.636 237.297 500.1C236.206 499.639 235.265 498.898 234.625 497.893L234.521 497.723C234.477 497.653 234.436 497.581 234.397 497.508L234.34 497.397C233.124 495.058 233.451 492.41 235.234 490.468ZM236.141 430.086C236.93 429.838 237.719 429.803 238.508 429.98C239.044 429.982 239.543 430.117 240.006 430.385C240.509 430.526 240.946 430.781 241.316 431.15C241.761 431.413 242.117 431.768 242.381 432.214C242.906 432.788 243.26 433.461 243.443 434.234L243.655 435.813L243.443 437.392L242.845 438.811C242.68 439.026 242.515 439.241 242.347 439.455C242.083 439.902 241.727 440.259 241.28 440.523C240.989 440.813 240.656 441.029 240.283 441.179C238.961 442.127 237.2 442.436 235.634 442.004C234.704 441.744 233.897 441.273 233.212 440.592C232.532 439.907 232.061 439.099 231.801 438.169L231.693 437.426C231.555 436.43 231.533 435.878 231.815 434.611C231.939 434.054 232.298 433.269 232.485 432.938C233.288 431.526 234.599 430.559 236.141 430.086ZM304.671 386.646C306.937 386.63 309.203 386.635 311.469 386.66L313.168 386.682C316.014 386.727 318.451 386.434 320.688 388.409C322.312 389.843 321.597 392.248 320.056 393.328C317.72 394.963 314.791 394.141 312.107 393.96C309.275 393.77 306.442 393.613 303.608 393.485C298.12 393.24 292.63 393.083 287.136 393.059C281.655 393.036 276.165 393.088 270.684 393.176C265.107 393.267 259.3 393.787 253.755 393.209C252.993 393.13 252.821 392.127 253.573 391.867C258.799 390.058 264.678 389.472 270.154 388.78C275.803 388.066 281.452 387.561 287.136 387.233C292.975 386.898 298.822 386.687 304.671 386.646ZM236.13 368.881L236.317 368.885C237.315 368.887 238.248 369.122 239.119 369.589L239.304 369.693L240.502 370.618C241.235 371.357 241.743 372.228 242.023 373.231L242.235 374.805C242.266 375.62 242.096 376.38 241.725 377.086C241.487 377.82 241.079 378.454 240.502 378.991C239.966 379.568 239.331 379.976 238.598 380.215C237.946 380.557 237.249 380.728 236.504 380.729L236.317 380.725C235.25 380.721 234.254 380.452 233.331 379.917L232.133 378.991C231.4 378.252 230.892 377.381 230.612 376.378L230.4 374.805C230.37 373.99 230.539 373.229 230.91 372.524C231.149 371.79 231.557 371.154 232.133 370.618C232.669 370.041 233.304 369.633 234.038 369.394C234.689 369.052 235.386 368.881 236.13 368.881ZM253.673 229.804C254.948 227.956 257.258 229.599 256.928 231.085C257.015 235.256 257.228 239.305 258.177 243.392C258.611 245.262 259.181 247.135 260.058 248.849L260.427 249.571C261.563 251.816 262.445 253.934 260.915 256.398C260.194 257.559 258.89 258.432 257.477 258.371C251.212 258.1 250.351 249.374 249.97 244.503C249.577 239.486 250.798 233.972 253.673 229.804Z" fill="#12296C"/>
<path fill-rule="evenodd" clip-rule="evenodd" d="M217.495 4.15963C241.648 4.15963 270.627 15.8746 273.091 16.1089L273.157 16.1125C274.453 16.1125 279.519 19.9734 288.353 27.6953L278.784 46.3673L279.559 47.1071C283.264 50.6615 286.427 53.9013 288.924 56.4552C309.312 77.3079 312.976 159.182 308.171 187.734C303.367 216.286 294.468 244.225 253.037 244.225C211.607 244.225 165.515 219.301 158.415 211.539C153.681 206.365 148.364 203.886 142.464 204.102C142.222 203.796 141.981 203.491 141.742 203.187L140.874 203.064C132.708 201.88 126.857 200.288 123.321 198.286C116.414 194.377 108.823 173.823 108.823 169.296C108.823 164.813 97.4871 132.206 97.2604 128.755L97.2569 128.66C97.2569 125.775 82.448 112.515 82.448 108.304C82.448 104.092 79.463 104.348 82.448 89.5084L83.3152 85.1489C86.4917 69.3491 92.709 43.1868 116.414 31.8186C142.464 19.3259 193.098 4.15963 217.495 4.15963Z" fill="white"/>
<path fill-rule="evenodd" clip-rule="evenodd" d="M112.393 31.2317C125.385 17.4347 199.142 -3.90581 236.458 0.617882L237.577 0.762916C240.555 1.14074 243.49 1.71287 246.386 2.49011C255.748 4.67771 265.418 7.99014 273.154 13.5231C279.612 18.0494 299.984 25.4413 293.979 37.2822C296.206 41.5025 297.037 46.7165 295.532 50.8731C295.343 52.3088 294.9 53.6312 294.334 55.0022C299.091 62.0248 302.857 69.9667 305.905 77.5204C311.233 96.5309 314.548 116.315 315.033 135.711C316.648 172.56 312.61 216.577 280.532 240.406C261.154 255.505 230.799 256.013 209.023 237.291C207.787 235.828 201.975 231.879 203.914 231.187C204.492 231.797 205.085 232.39 205.689 232.973C205.662 232.908 205.656 232.844 205.668 232.773L205.099 232.259C204.029 231.268 202.643 229.831 204.222 230.112C204.292 230.193 204.368 230.264 204.443 230.345C204.777 230.545 205.03 230.719 205.226 230.873L205.327 230.954L205.296 230.921C204.387 229.951 203.841 228.961 205.201 229.593L205.381 229.681C205.986 230.318 206.6 230.928 207.226 231.521C207.216 231.451 207.226 231.381 207.265 231.305L206.681 230.741C206.111 230.183 206.198 230.181 206.477 229.729C205.266 228.032 207.526 229.04 207.685 229.702C209.099 229.368 210.34 232.023 211.251 232.347C251.171 263.053 309.102 235.807 308.164 150.244L308.15 148.57C307.876 121.21 305.574 93.0898 294.264 68.3231C293.164 65.9374 291.933 63.6165 290.58 61.3712C289.646 59.6872 288.648 58.0463 287.575 56.4487C284.57 56.2058 281.602 55.6553 278.679 54.8025C277.675 54.5488 276.683 54.2681 275.69 53.9389C261.19 54.7301 247.012 55.591 232.471 56.4071L227.928 56.6902C215.61 57.4825 202.871 58.7516 192.93 66.3746C183.177 73.3147 183.133 87 174.783 94.6196C162.877 102.705 162.79 109.995 160.498 121.909C160.668 130.891 166.892 143.94 155.47 147.72C157.397 150.469 154.711 149.148 154.499 148.184C154.478 148.19 154.456 148.195 154.44 148.195C156.157 151.389 153.633 149.378 153.41 148.352C153.275 148.314 153.14 148.217 153.005 148.082C154.735 150.88 151.938 148.92 152.104 148.411C148.761 143.27 141.881 142.472 137.031 143.834C136.971 144.017 136.756 144.034 136.621 143.936C115.999 148.408 121.32 191.121 142.453 186.992C143.358 186.807 143.336 187.242 143.516 187.284C143.027 186.001 144.404 186.523 144.389 186.792L144.473 186.788C144.539 186.782 144.512 186.775 144.562 186.792C144.09 184.17 146.746 187.97 146.536 188.126C146.618 188.077 146.709 188.05 146.79 188.039L146.699 187.79C146.258 186.615 146.296 187.104 146.299 186.431C145.968 185.599 145.943 185.963 146.021 185.421C147.185 184.518 147.529 187.256 147.917 187.456C147.252 186.528 147.781 185.77 148.409 186.274C153.168 196.29 159.317 205.702 167.263 213.116C168.132 213.801 169.011 214.476 169.922 215.113C173.302 218.058 178.486 219.952 181.65 222.561C181.65 222.605 181.629 222.659 181.597 222.713L181.669 222.778L181.742 222.847L182.843 223.376C183.167 223.652 183.458 223.959 183.716 224.299C183.992 224.618 184.234 224.969 184.44 225.341C184.542 225.795 184.316 225.983 183.884 225.789C183.695 225.724 183.506 225.649 183.318 225.579C183.328 225.595 183.333 225.606 183.345 225.616C183.406 225.71 183.826 226.682 183.343 226.524L183.285 226.502C183.02 226.404 182.757 226.296 182.498 226.194C182.805 226.577 183.085 226.993 183.333 227.344C183.598 227.619 183.759 227.943 183.825 228.31C183.813 228.515 183.701 228.601 183.496 228.574C183.183 228.472 182.875 228.364 182.567 228.25L182.655 228.418C182.872 228.846 183.182 229.564 182.632 229.324C182.163 229.179 181.71 229.011 181.257 228.828C181.219 228.903 181.144 228.93 180.992 228.86C179.552 228.348 178.16 227.721 176.828 226.982C175.657 226.129 174.475 225.293 173.3 224.445C172.193 223.781 171.125 223.042 170.106 222.211C163.284 217.802 157.311 212.202 152.573 205.964C144.649 212.83 128.806 206.271 119.005 200.896C110.336 196.092 106.929 187.21 106.048 177.634C104.217 164.742 93.6862 160.329 94.4188 132.04C94.4026 132.046 94.3859 132.046 94.3643 132.046C93.9813 131.932 93.6096 131.781 93.259 131.587C92.8975 131.414 92.5577 131.209 92.2388 130.961L91.845 130.416C91.6406 130.302 91.4572 130.184 91.3169 130.065L91.2442 130.159C91.0139 130.437 91.1687 130.018 91.182 129.935L90.4979 129.004C88.8758 126.789 87.0962 124.302 85.6466 122.314L85.6009 122.395C85.5681 122.456 85.5508 122.5 85.5662 122.519C82.1163 117.56 78.8719 111.57 77.9705 105.771C76.9061 101.304 77.322 96.7009 78.2505 92.5632C82.2312 78.0737 95.2712 45.2851 112.393 31.2317ZM206.017 231.615L205.8 231.422L205.991 231.66C206.09 231.783 206.192 231.894 206.358 232.007C206.347 231.969 206.347 231.931 206.352 231.888C206.242 231.804 206.129 231.712 206.017 231.615ZM236.293 7.89838C210.987 5.72158 186.098 11.2993 161.95 18.051L160.285 18.5301C146.554 22.45 132.035 25.9773 120.432 34.3676C104.22 46.791 95.849 66.5544 88.5435 84.8016C82.1643 98.359 85.4254 113.646 95.0387 123.113C96.0388 113.706 97.7441 104.574 100.409 95.5151C100.965 94.0999 100.544 93.6362 101.743 93.4516C103.554 117.863 94.6368 135.9 112.283 164.831C119.939 178.482 111.076 188.471 132.698 195.654L133.283 195.878C137.787 197.579 142.707 198.921 147.119 197.971L146.724 197.327C146.32 196.665 146.198 196.343 146.784 196.06C146.769 196.027 146.747 195.995 146.725 195.957C146.251 195.061 145.792 194.155 145.355 193.237C145.177 193.296 144.999 193.339 144.815 193.388C144.935 193.609 144.95 193.831 144.616 193.906C143.427 194.314 142.207 194.478 140.957 194.401L140.689 194.381C139.277 194.295 138.388 194.037 137.592 193.798C137.328 193.755 137.064 193.712 136.804 193.658C134.244 193.09 131.535 191.646 129.781 190.214C109.789 178.854 111.855 140.181 136.497 136.526C137.003 112.177 148.578 71.0974 167.788 47.8953C185.153 26.5531 232.558 17.3029 265.539 20.5646C266.019 20.7239 266.5 20.8847 266.981 21.0472C272.069 21.4995 276.918 23.7675 282.01 24.8211C278.354 22.0797 274.207 20.2537 269.935 18.702C261.423 13.4929 251.665 10.6743 242.238 8.68641C240.285 8.20604 238.305 7.94156 236.293 7.89838ZM135.369 156.086C136.694 155.366 136.543 156.061 136.848 155.859C146.378 155.082 156.654 163.43 161.981 170.389C161.56 170.827 160.422 169.531 160.223 169.326C160.196 169.353 160.163 169.375 160.131 169.385L160.279 169.595C162.438 172.695 158.158 169.047 157.757 168.295C157.687 168.333 157.617 168.355 157.536 168.338C157.875 168.671 158.912 169.54 159.09 170.157L159.364 170.386C161.955 172.606 161.74 174.275 158.799 171.123C158.869 171.269 158.896 171.404 158.847 171.512L158.948 171.58C160.395 172.591 161.584 175.41 158.561 172.516C158.876 174.63 155.565 170.544 155.459 170.573C149.731 166.074 141.298 161.699 134.112 161.111L133.865 161.083C132.547 160.913 131.923 160.522 132.386 159.659C130.762 159.273 131.143 158.473 131.911 158.499C130.766 157.745 131.797 157.025 132.462 157.306C132.005 156.04 133.837 156.883 134.005 156.707C134.956 155.239 135.212 156.463 135.369 156.086ZM115.393 77.6337C119.97 75.9562 133.491 80.978 132.409 87.6288C131.765 89.1557 129.643 90.0307 128.151 89.1687L126.205 87.8605C122.817 85.5903 119.761 83.5997 116.123 81.6198C114.144 80.6369 113.291 78.5502 115.393 77.6337ZM141.436 67.7503L139.668 66.5993C130.128 60.3525 116.642 50.887 140.559 60.6801C143.285 61.8498 146.907 62.5417 148.394 65.139C150.731 69.926 144.582 70.2477 141.436 67.7503ZM142.508 39.7217C141.742 36.8152 151.268 40.2259 154.04 41.1251L154.463 41.2847C157.16 42.2903 160.252 43.2231 161.865 45.5521C163.756 48.7701 159.93 49.4367 157.56 47.9831C152.701 44.8062 147.374 42.4091 142.508 39.7217ZM166.73 26.1822C161.368 20.3241 175.717 25.936 177.867 27.4937L177.928 27.5397C179.532 28.6694 179.207 31.1026 177.7 31.8172C173.413 31.8987 170.258 28.3234 166.73 26.1822ZM191.128 19.764C182.604 13.6351 193.832 16.5503 197.732 18.9522C200.39 21.2974 197.652 25.2564 191.128 19.764Z" fill="#12296C"/>
<path fill-rule="evenodd" clip-rule="evenodd" d="M221.566 173.516C230.813 172.394 239.777 175.226 248.817 176.654C253.591 177.407 258.37 177.97 263.2 178.179C264.172 178.222 265.144 178.246 266.116 178.266C266.206 177.41 266.685 176.624 267.723 176.153C269.851 175.188 271.553 174.753 273.889 174.846C276.027 174.93 278.173 175.15 280.278 175.536C284.101 176.237 287.942 177.829 290.738 180.593C297.21 186.991 296.225 197.267 291.224 204.236C280.892 218.635 262.035 219.303 245.885 219.115L244.394 219.096C229.689 218.886 208.649 221.079 201.969 204.34C199.512 198.184 199.853 191.049 202.861 185.145C206.449 178.103 214.001 174.435 221.566 173.516ZM267.5 197.491L267.369 197.497C260.589 197.758 253.81 197.942 247.026 198.062C247.229 199.805 247.436 201.548 247.673 203.288C247.859 204.656 248.058 206.023 248.265 207.389C248.353 207.967 248.675 208.865 248.584 209.437L248.551 209.664C248.899 209.821 249.215 210.075 249.45 210.444C249.532 210.571 249.591 210.7 249.651 210.828C254.917 210.869 260.585 210.767 265.954 209.809L265.965 209.692C266.063 209.006 266.348 208.544 266.727 208.227C267.104 206.039 267.07 203.707 267.216 201.536C267.307 200.187 267.405 198.839 267.5 197.491ZM241.845 198.154C236.958 198.237 232.069 198.302 227.183 198.242L224.965 198.208C225.433 200.722 225.943 203.227 226.367 205.758C226.809 208.396 224.488 210.073 222.48 210.005C222.705 210.042 222.93 210.081 223.156 210.112C229.431 211 235.946 210.765 242.315 210.758C241.972 208.757 242.111 206.499 242.06 204.83L242.05 204.571C241.952 202.431 241.884 200.293 241.845 198.154ZM208.651 197.693C208.82 199 209.15 200.28 209.644 201.471C211.73 206.504 216.512 208.852 221.572 209.841C220.694 209.538 219.997 208.809 219.821 207.561C219.382 204.457 219.224 201.302 219.213 198.151C215.686 198.118 212.136 198.042 208.651 197.693ZM285.891 196.618C283.38 197.211 280.462 196.939 277.999 197.051C275.691 197.156 273.383 197.248 271.075 197.341C271.184 198.917 271.29 200.493 271.405 202.068C271.553 204.105 271.567 206.256 271.957 208.284C276.602 206.698 280.763 204.155 283.885 200.088C284.663 199.074 285.36 197.885 285.891 196.618ZM220.505 181.774C216.325 182.764 212.37 184.855 210.244 188.682C208.982 190.953 208.427 193.644 208.534 196.296C212.066 195.884 215.659 195.728 219.235 195.599C219.247 194.955 219.262 194.311 219.282 193.669L219.337 192.023C219.434 188.884 219.483 184.941 220.505 181.774ZM242.137 182.157L240.297 181.95C235.187 181.367 230.079 180.756 224.969 181.106C224.229 181.158 223.478 181.238 222.726 181.348C223.629 184.61 223.553 188.44 223.93 191.668C224.076 192.917 224.26 194.155 224.464 195.388L225.351 195.346C230.835 195.049 236.324 194.866 241.812 194.648C241.811 193.617 241.817 192.586 241.834 191.554L241.854 190.522C241.916 187.886 241.746 184.917 242.137 182.157ZM267.799 181.738C262.447 182.603 256.915 182.787 251.658 182.793C249.558 182.796 247.459 182.667 245.361 182.481C245.498 183.598 245.569 184.729 245.672 185.831C245.879 188.057 246.115 190.281 246.373 192.502L246.602 194.446C253.348 194.14 260.093 193.809 266.837 193.467L267.788 193.416L268.055 189.68C268.237 187.189 268.437 184.699 268.719 182.219L268.507 182.143C268.258 182.041 268.023 181.9 267.799 181.738ZM270.124 182.666C270.419 186.188 270.582 189.724 270.799 193.252L275.245 193.015C275.985 192.974 276.726 192.933 277.467 192.89C280.348 192.724 284.05 191.851 286.898 192.665C287.116 190.075 286.376 187.551 284.039 185.811C279.936 182.754 274.713 183.842 270.124 182.666ZM254.934 151.18C261.554 147.387 278.165 143.51 279.217 155.43C279.701 160.916 275.625 165.461 270.865 167.489L270.686 167.564C266.222 169.4 258.31 171.474 254.447 167.492C251.232 164.178 255.496 158.236 259.491 160.951C261.545 162.345 265.866 161.318 268.157 160.654L268.301 160.612C270.773 159.885 274.069 157.558 273.047 154.513C272.142 151.818 268.293 151.326 265.882 151.238C262.283 151.109 258.781 151.946 255.215 152.218C254.65 152.261 254.476 151.442 254.934 151.18ZM282.358 132.012C291.343 131.591 296.932 141.407 294.866 149.45C294.509 150.838 292.958 152.2 291.46 152.044L291.083 152.009C290.891 151.991 290.698 151.967 290.521 151.918C289.099 151.524 287.825 150.044 287.928 148.51L287.956 148.063C288.165 144.263 287.754 139.886 283.241 138.966C279.413 138.185 277.276 141.871 277.231 145.264C277.222 145.867 276.546 146.287 276.014 145.963C273.247 144.279 272.768 140.927 273.824 138.041C275.164 134.384 278.516 132.192 282.358 132.012ZM215.678 134.118C222.217 131.935 229.271 135.422 232.438 141.206C233.548 141.528 234.657 142.384 234.503 143.696C234.28 145.583 233.945 146.772 232.637 148.203C230.592 150.442 226.761 149.297 225.911 146.542L225.875 146.417C224.909 142.855 220.991 140.505 217.421 141.752C213.251 143.208 213.372 147.615 210.447 150.182C210.103 150.484 209.691 150.532 209.279 150.333C206.172 148.83 206.73 144.31 207.838 141.722C209.291 138.326 212.114 135.307 215.678 134.118ZM206.773 114.251C212.071 108.842 225.888 103.607 229.513 113.596C230.203 115.499 228.733 118.064 226.753 118.459C223.511 119.104 220.635 117.696 217.414 117.949C214.807 118.154 212.088 119.026 210.003 120.642C204.23 125.118 202.96 132.688 198.937 138.384C198.741 138.661 198.361 138.545 198.325 138.218C197.409 129.925 200.969 120.175 206.773 114.251ZM275.876 108.926C279.392 107.683 283.374 107.79 286.908 108.892C290.469 110.003 293.738 112.112 296.256 114.868C297.398 116.119 298.456 117.5 299.304 118.969C299.754 119.748 300.228 121.357 300.74 122.315C303.51 123.915 304.694 127.561 302.214 130.155L302.102 130.269L301.77 130.598C300.437 131.918 298.427 132.491 296.608 131.963C292.536 130.784 292.041 127.576 290.631 124.17C289.7 121.92 288.105 119.93 286.171 118.467C281.6 115.013 274.105 113.912 268.602 115.54C268.309 115.627 267.965 115.254 268.174 114.983C269.217 113.631 269.818 112.522 271.214 111.432C272.631 110.325 274.178 109.526 275.876 108.926Z" fill="#12296C"/>
<path fill-rule="evenodd" clip-rule="evenodd" d="M215.296 206.288C219.664 196.05 229.196 188.526 240.172 185.776C248.231 183.761 256.69 183.825 264.906 184.625C269.21 185.041 273.827 185.382 277.884 186.981C281.348 188.347 284.171 190.93 286.294 193.962C288.821 197.555 290.539 201.666 291.746 205.881C291.918 206.48 292.079 207.084 292.229 207.691C291.704 210.87 290.59 213.577 287.646 215.576C284.774 217.528 281.346 218.327 277.929 218.611C277.594 218.449 277.271 218.284 276.974 218.114C271.649 215.065 267.902 207.858 261.181 208.833C255.184 209.704 251.236 217.254 247.669 221.682C236.221 223.016 224.781 219.574 215.466 213.025C214.993 210.783 214.966 208.522 215.296 206.288ZM300.01 198.522C299.094 195.95 297.941 193.46 296.573 191.114C292.053 183.355 285.114 177.174 276.877 173.64C257.39 165.292 232.177 171.176 216.44 184.868C211.064 189.548 205.629 196.426 203.985 203.824C203.494 203.921 203.031 204.177 202.649 204.537C191.279 197.375 179.571 190.484 170.409 180.556C163.755 173.343 159.127 164.806 156.293 155.425C156.062 154.653 154.817 154.766 154.855 155.621C154.866 155.82 154.877 156.02 154.887 156.22C154.769 155.852 154.209 156.041 154.165 156.398C152.641 167.793 150.734 179.875 152.49 191.33C153.54 198.165 156.644 203.169 160.792 208.572C165.237 214.364 170.269 219.751 175.414 224.917C178.679 228.196 182.089 231.979 186.086 234.383C190.736 237.177 196.01 239.301 200.972 241.456C206.02 243.655 211.144 245.687 216.364 247.448C226.8 250.982 237.586 253.424 248.56 254.494C257.347 255.348 267.389 256.278 275.81 252.97C282.264 250.436 287.474 245.855 291.606 240.343C296.105 234.34 299.661 227.502 301.627 220.291C303.67 212.801 300.441 199.729 300.01 198.522Z" fill="#12296C"/>
<path fill-rule="evenodd" clip-rule="evenodd" d="M320.689 136.709C315.546 171.517 279.642 175.366 273.263 140.81C274.287 140.362 275.023 139.479 274.869 137.765C274.833 130.234 277.17 122.275 283.96 118.087C290.976 113.766 299.187 113.337 307.307 113.446C322.801 113.077 322.475 126.035 320.689 136.709ZM267.642 121.571C262.78 121.365 256.627 121.537 252.271 124.501C251.074 121.275 247.962 117.83 244.818 115.987C256.504 116.33 268.533 115.179 280.306 114.286C277.488 116.208 274.866 119.095 273.162 122.434C271.581 121.59 269.316 121.669 267.642 121.571ZM246.208 140.399C232.724 186.837 199.066 166.596 195.397 160.645C188.778 150.797 187.533 126.857 193.298 120.456C201.551 114.668 213.234 116.157 222.984 116.015C240.894 116.257 253.615 121.618 246.208 140.399ZM336.61 119.041C332.947 118.561 329.032 118.465 325.626 120.079C324.577 115.619 321.285 111.89 317.567 110.249C317.117 109.685 317.185 109.381 315.648 109.466C306.21 106.628 295.649 108.13 286.579 111.04C272.255 112.247 257.227 113.199 242.783 114.861C229.252 108.782 188.418 107.891 185.881 122.876C182.689 122.398 177.252 119.884 174.57 123.294C154.895 119.957 134.566 124.595 114.805 126.66C109.831 127.577 107.27 137.453 112.916 137.318C116.09 136.456 112.818 131.168 117.092 130.771C136.157 128.687 154.806 125.731 174.066 125.385C173.396 128.713 186.805 128.929 187.003 126.986C187.032 127.001 187.062 127.011 187.091 127.024C183.778 139.378 186.769 157.159 192.757 164.82C201.147 174.852 222.21 177.73 231.55 171.275C243.598 165.318 256.131 135.415 252.611 125.48C259 123.454 265.317 124.063 271.948 125.095C270.43 129.385 267.809 139.947 271.579 140.863C270.887 161.832 289.961 174.916 307.544 166.314C322.763 159.166 328.086 136.541 326.224 122.808C328.118 126.471 344.026 122.483 336.61 119.041Z" fill="#12296C"/>
</svg>
