<svg width="395" height="509" viewBox="0 0 395 509" fill="none" xmlns="http://www.w3.org/2000/svg">
<path fill-rule="evenodd" clip-rule="evenodd" d="M175.396 193.094C187.861 193.709 207.27 199.055 208.241 202.472C209.756 207.807 206.5 227.809 211.946 238.583C214.267 243.176 223.083 242.764 226.499 244.26C237.927 249.264 271.762 258.756 278.738 270.707C281.532 275.495 298.708 334.905 307.834 365.215C308.863 368.632 310.025 371.792 311.288 374.719L311.753 372.445C315.474 354.126 317.334 343.036 317.334 339.175C317.334 333.143 312.524 307.69 317.334 301.218C322.097 294.81 333.573 289.57 338.736 289.466L338.891 289.465C342.281 289.465 345.223 288.405 347.716 286.284L351.371 284.445C369.967 275.111 380.831 269.99 383.964 269.084C388.964 267.638 397.473 270.719 393.219 275.343C390.382 278.427 383.255 283.881 371.837 291.706L367.531 295.128L368.052 295.4C373.616 298.33 376.887 300.797 377.867 302.799C378.876 304.863 378.392 307.305 376.414 310.124L376.714 310.417C379.215 312.872 380.465 314.52 380.465 315.358V319.455C382.954 323.1 383.576 326.141 382.332 328.576C381.087 331.01 379.115 333.12 376.414 334.905C374.423 340.143 372.053 343.871 369.303 346.089C366.553 348.307 361.8 350.153 355.044 351.627L348.93 366.251L343.976 386.795L341.48 409.719L342.205 410.244C345.564 412.692 347.716 414.506 347.716 416.381C347.716 419.302 334.162 487.997 313.074 491.072C308.513 491.736 284.86 488.475 277.094 482.155L277.209 482.838C279.036 493.878 278.65 499.612 276.049 500.039C244.091 505.28 153.328 506.899 3.76003 504.897C2.87016 425.483 6.89395 372.594 15.8314 346.231C38.6894 278.806 63.8914 255.777 72.7082 253.804C80.4314 252.077 107.213 241.413 114.699 238.583C119.586 236.736 120.633 231.197 126.202 231.197L126.652 231.199C132.037 231.253 136.813 232.217 139.496 229.446C146.538 222.174 144.57 212.109 147.491 202.472C149.1 197.162 160.099 192.339 175.396 193.094Z" fill="white"/>
<path fill-rule="evenodd" clip-rule="evenodd" d="M141.149 212.134C141.88 210.684 143.823 210.871 145.104 211.529C148.948 214.34 144.926 219.789 143.863 223.22C141.128 229.873 136.377 236.376 129.82 239.486C130.363 246.1 130.979 252.7 131.206 259.335C139.59 269.739 153.727 273.536 166.275 276.457C185.985 281.909 208.228 270.738 214.88 251.249C207.309 246.945 204.859 235.678 207.118 227.817C207.315 227.265 208.17 227.021 208.475 227.637C210.548 231.903 210.271 237.107 212.628 241.321C235.25 243.487 264.445 252.026 279.265 270.328C285.833 279.484 288.434 291.392 291.669 302.004C298.571 323.881 304.07 346.201 310.839 368.101L311.637 363.957C313.824 352.543 315.811 340.973 314.334 329.365L314.308 328.81C313.825 319.573 310.936 302.409 318.096 296.173C324.573 291.222 333.956 287.243 342.084 289.525C356.548 283.086 369.032 272.244 384.437 268.02C389.178 267.044 395.998 268.2 394.878 274.634C391.772 285.888 378.766 290.256 369.875 296.058C375.575 297.603 382.522 304.536 378.07 310.582C378.031 310.689 377.997 310.771 377.963 310.835C381.574 312.436 382.079 316.46 381.193 319.91C381.103 320.822 380.864 320.038 381.399 320.864C385.473 324.708 383.672 335.424 377.535 335.786C377.937 340.863 374.676 345.795 370.547 348.564C366.097 351.548 359.662 351.676 355.977 355.76C347.326 371.019 344.342 389.034 343.399 406.508C349.102 408.643 354.218 415.028 349.037 420.446C348.935 420.458 348.833 420.469 348.729 420.478C345.726 428.496 344.566 437.043 342.978 445.417C340.534 459.705 334.166 472.824 326.034 484.726C316.629 500.482 291.341 497.984 278.602 487.816C278.653 490.484 279.092 493.136 278.238 495.713C276.978 498.495 273.904 497.293 273.6 494.554C266.865 498.342 265.279 485.836 272.765 487.82C272.189 478.779 271.856 469.725 271.585 460.669C263.109 463.413 262.744 449.346 271.413 452.159L271.403 448.27C271.339 418.45 271.669 388.529 275.602 358.945C275.966 356.731 276.582 354.591 276.942 352.391C276.98 352.164 277.335 352.228 277.337 352.446C277.945 393.865 275.239 435.373 278.063 476.806C280.413 477.523 281.35 480.221 283.09 481.793C286.954 485.361 292.215 487.099 297.36 487.704C311.767 489.725 317.988 485.323 324.403 472.795C321.51 474.73 317.599 471.314 319.363 468.252L319.418 468.16C321.25 464.915 326.423 466.86 325.768 470.493C332.218 460.159 335.594 448.507 338.088 436.684L338.425 435.272C339.637 430.253 341.21 424.501 344.121 419.96C326.371 415.435 309.008 401.646 306.23 382.729C301.724 396.893 295.619 410.739 289.8 424.515C288.003 429.305 287.254 434.454 284.678 438.897C284.079 439.925 282.56 439.659 282.221 438.576C279.904 428.214 286.924 418.359 290.569 409.031C293.546 403.76 302.089 379.687 307.386 379.629C301.434 353.531 293.495 327.628 285.935 301.855C278.624 267.055 263.726 260.344 232.166 249.387C237.858 278.408 263.849 306.499 250.019 336.938L249.682 337.727C248.268 341.084 247.093 344.465 248.08 348.149C249.039 351.723 251.221 354.827 252.967 358.041C262.727 376.2 256.009 397.407 252.235 416.317C247.468 438.494 242.759 460.691 237.832 482.833C236.861 487.251 236.232 491.801 234.764 496.082C234.007 498.291 230.229 498.081 230.473 495.504C230.939 490.504 232.342 485.629 233.37 480.719C239.505 448.931 247.807 417.518 253.085 385.591C256.481 361.957 243.114 358.326 243.613 343.055C245.43 335.245 250.239 328.275 249.963 319.953C251.031 294.476 232.481 273.458 230.191 248.68L226.148 247.237C224.127 246.514 222.108 245.784 220.096 245.037C230.688 319.145 227.472 394.872 222.177 469.345C221.095 472.782 222.124 496.787 217.589 494.656C217.36 495.998 216.647 497.317 215.098 497.31C201.034 497.439 186.964 497.661 172.9 497.829C166.134 497.206 156.835 499.789 151.081 495.885C144.437 493.988 143.673 475.988 141.897 469.572L141.205 464.906C129.915 388.665 119.812 310.851 127.927 233.854C116.637 234.288 114.307 246.478 113.469 255.354C111.376 274.943 98.7237 291.813 98.117 311.627C98.0656 316.434 98.9728 321.091 100.894 325.505C105.99 336.318 114.803 348.82 108.216 360.897C100.425 370.299 101.1 372.773 103.959 384.392C112.002 422.803 125.359 459.729 138.065 496.763C135.304 511.158 118.699 457.721 117.136 453.691C109.786 457.389 105.77 445.118 114.201 444.244C108.786 426.11 103.802 407.841 99.6531 389.371L99.5432 388.85C97.7103 380.317 94.1052 370.324 100.193 362.754C115.891 346.873 89.8223 329.123 93.1106 309.885C90.2712 311.991 85.973 309.775 86.0376 306.238C85.9088 302.255 91.2566 300.215 93.8299 303.254C96.4758 287.645 105.681 274.019 108.466 258.456L108.592 257.726C109.536 252.225 109.802 246.438 112.503 241.425C108.827 243.814 104.912 245.744 100.885 247.448C108.085 253.463 94.1436 258.954 95.2972 249.661C55.8164 261.088 46.8928 277.022 32.3971 313.617C35.1048 310.986 39.7431 314.391 38.1223 317.748C36.8292 321.283 31.1883 320.25 31.1904 316.481L30.5297 318.057C21.7397 339.083 13.7393 360.62 9.71879 383.121C17.6057 382.008 15.5976 394.617 8.4518 391.062C5.58406 411.074 5.53871 431.369 5.88915 451.542C12.5416 448.052 12.7418 459.91 5.95333 456.529C6.20151 473.061 6.56522 489.593 6.83907 506.124C6.8947 509.643 1.46903 509.626 1.38345 506.124C0.749741 480.723 -0.405138 455.275 0.143847 429.866C-0.372619 385.765 12.3007 343.258 31.1836 303.753C47.8915 258.265 70.9702 253.092 113.431 239.867C117.351 234.046 125.725 228.541 132.557 232.196C136.379 226.023 138.32 218.711 141.149 212.134ZM68.3999 370.669C68.5583 370.108 69.3584 370.249 69.3841 370.802C69.7392 377.938 69.4226 385.12 68.9348 392.286C68.6391 396.661 68.2758 401.031 67.9678 405.376C67.1505 416.84 66.4915 428.316 65.9909 439.801C66.1663 439.728 66.3461 439.663 66.5343 439.612C67.3987 439.376 68.2634 439.376 69.1274 439.612C69.8981 439.828 70.572 440.204 71.1524 440.748L71.2754 440.867C71.7503 441.307 72.0884 441.83 72.2852 442.433C72.5656 442.97 72.7075 443.544 72.7072 444.158L72.7041 444.312C72.7002 445.194 72.482 446.011 72.037 446.774C71.6048 447.506 71.0229 448.088 70.2912 448.524C69.5296 448.965 68.7119 449.184 67.8308 449.188C67.7367 449.197 67.6421 449.205 67.5484 449.209C66.8933 449.235 66.2819 449.098 65.7166 448.803L65.6315 448.777C65.4175 454.603 65.2421 460.433 65.1137 466.263C64.9982 471.344 64.8442 476.425 64.7415 481.506L64.6938 484.048L64.6006 489.665C64.5704 491.975 64.5852 494.187 63.8001 496.366L63.706 496.617C63.1411 498.072 62.7008 500.097 61.1895 500.906C59.9833 501.552 58.3573 501.313 57.6641 500.054C57.0822 499.001 57.5867 497.486 58.4472 496.775C58.4301 496.728 58.4044 496.685 58.383 496.638C58.2503 496.253 58.0488 495.889 57.9294 495.5C57.5524 494.267 57.6556 492.953 57.6513 491.672C57.6513 489.413 57.7279 487.153 57.7882 484.896C57.9209 480.093 58.0749 475.295 58.2627 470.497C58.8988 454.4 60.0963 438.302 61.4679 422.25L61.9334 416.833C62.5535 409.628 63.1953 402.416 64.1039 395.248C64.1463 394.906 64.1895 394.563 64.2365 394.22C63.7487 393.977 63.2952 393.639 62.9353 393.262C61.4938 391.748 60.6194 389.484 59.7995 387.533L59.611 387.089C58.721 385.009 57.8995 382.903 57.4758 380.669L57.4353 380.463C57.2421 379.511 56.8607 377.825 57.8695 377.364C58.3958 377.124 58.7291 377.295 58.9007 377.822C58.9226 377.89 58.9046 377.967 58.8665 378.027C59.2816 378.665 59.9319 379.26 60.3427 379.851L61.7487 381.862L62.4437 382.873C63.3251 384.17 64.2665 385.411 65.2378 386.636C66.0033 381.259 66.9408 375.904 68.3999 370.669ZM126.054 490.479C127.813 489.1 130.675 489.849 130.675 492.392C130.675 494.947 127.808 495.684 126.054 494.305L125.967 494.241L125.883 494.172C124.928 493.426 124.896 491.482 125.811 490.671L125.883 490.611C125.938 490.564 125.994 490.522 126.054 490.479ZM49.4429 485.51L49.594 485.513C50.3898 485.513 51.1301 485.714 51.819 486.117C52.1185 486.344 52.4138 486.574 52.7133 486.806C53.261 487.353 53.6375 488.004 53.8472 488.754L54.0059 489.926C54.0269 490.534 53.9028 491.099 53.6247 491.626C53.445 492.173 53.1412 492.649 52.7133 493.047C52.3111 493.479 51.8404 493.783 51.2931 493.958C50.8103 494.213 50.2954 494.343 49.745 494.343L49.594 494.34C48.7942 494.34 48.0535 494.139 47.3646 493.736C47.0651 493.509 46.7699 493.278 46.4703 493.047C45.9269 492.499 45.5461 491.848 45.3369 491.099C45.2851 490.709 45.2342 490.316 45.1781 489.926C45.1571 489.318 45.2851 488.754 45.5589 488.227C45.7386 487.679 46.0424 487.204 46.4703 486.806C46.873 486.374 47.3432 486.069 47.8909 485.894C48.3734 485.639 48.8918 485.51 49.4429 485.51ZM249.745 477.371L250.866 477.521C251.94 477.765 252.804 478.557 253.382 479.46C253.69 479.944 253.857 480.466 253.882 481.027C254.007 481.584 253.981 482.144 253.805 482.705C253.677 483.253 253.425 483.732 253.052 484.139C252.924 484.34 252.774 484.524 252.603 484.687C252.252 485.273 251.722 485.658 251.174 486.052C250.712 486.348 250.211 486.506 249.672 486.532C249.317 486.626 248.957 486.626 248.598 486.532C248.063 486.506 247.562 486.348 247.1 486.052C246.827 485.843 246.553 485.629 246.283 485.419C246.044 485.141 245.821 484.854 245.611 484.554C245.47 484.225 245.333 483.899 245.197 483.574C244.944 482.79 245.068 482.097 245.205 481.314C245.226 481.181 245.261 481.061 245.308 480.932L245.4 480.684C245.646 480.033 245.778 479.813 246.215 479.246L246.381 479.024C246.464 478.913 246.55 478.804 246.647 478.707C246.921 478.424 247.31 478.189 247.618 477.945C248.277 477.564 248.987 477.376 249.745 477.371ZM104.47 474.63L104.612 474.632C105.233 474.636 105.815 474.79 106.354 475.103L107.056 475.646C107.483 476.079 107.779 476.583 107.946 477.171C107.984 477.478 108.027 477.787 108.07 478.091C108.087 478.566 107.989 479.01 107.77 479.426C107.634 479.854 107.394 480.222 107.056 480.539C106.744 480.873 106.371 481.113 105.943 481.254C105.57 481.448 105.168 481.551 104.741 481.552L104.612 481.549C103.988 481.549 103.406 481.391 102.867 481.078L102.165 480.539C101.737 480.107 101.442 479.597 101.275 479.01C101.236 478.703 101.193 478.399 101.151 478.091C101.134 477.615 101.232 477.171 101.45 476.759C101.591 476.331 101.827 475.959 102.165 475.646C102.477 475.308 102.849 475.068 103.277 474.931C103.651 474.735 104.045 474.636 104.47 474.63ZM76.2304 473.215C77.1243 473.206 78.0318 473.459 78.7635 473.977C79.4738 474.482 80.0125 475.026 80.3596 475.843C80.4537 476.066 80.5474 476.284 80.6291 476.507C80.9971 477.487 81.0656 478.471 80.5564 479.43C80.0643 480.359 79.0031 480.766 78.0528 481.044C77.2488 481.284 76.3374 481.322 75.5372 481.036C75.1393 480.894 74.7499 480.744 74.3905 480.526C73.7187 480.111 73.355 479.618 72.9057 479.01C72.5548 478.412 72.3794 477.76 72.3794 477.067C72.3794 476.369 72.5548 475.723 72.9057 475.12C73.5942 473.943 74.8697 473.223 76.2304 473.215ZM30.8737 474.041C32.0037 474.041 32.996 474.563 33.6768 475.445C34.3653 476.34 34.6177 477.453 34.3139 478.562C33.993 479.734 33.0221 480.762 31.8193 481.057C30.9297 481.275 30.2019 481.267 29.3162 481.116C28.5673 480.988 27.9944 480.543 27.4206 480.081C26.7659 479.545 26.5648 478.57 26.6718 477.782C26.7745 476.995 27.1386 476.481 27.6906 476.014L27.6944 476.002L27.4891 476.16C27.5665 476.091 27.6431 476.019 27.7205 475.946C27.7458 475.903 27.7672 475.856 27.7886 475.809C28.1052 475.27 28.5331 474.846 29.068 474.529C29.6285 474.204 30.2276 474.041 30.8737 474.041ZM294.28 461.075C294.9 460.908 295.525 460.908 296.145 461.075C296.603 461.182 297.001 461.392 297.339 461.704C297.682 461.928 297.962 462.213 298.174 462.568L298.242 462.689C298.73 463.52 298.807 464.469 298.597 465.394C298.336 466.537 297.284 467.578 296.145 467.847L296.107 467.854L296.069 467.864C295.606 468.01 295.14 468.031 294.678 467.924C294.211 467.903 293.779 467.766 293.381 467.509C292.877 467.184 292.453 466.764 292.128 466.259C291.871 465.857 291.734 465.424 291.712 464.957C291.631 464.65 291.631 464.341 291.712 464.033C291.734 463.566 291.871 463.134 292.128 462.732L292.675 462.025L292.731 461.979C293.167 461.541 293.685 461.242 294.28 461.075ZM251.2 438.422C256.809 438.422 256.801 447.129 251.2 447.129C245.59 447.129 245.599 438.422 251.2 438.422ZM45.8197 437.322C46.4106 437.189 47.0011 437.215 47.5873 437.399C47.9425 437.549 48.2933 437.699 48.6442 437.844L49.5428 438.538C49.7097 438.679 49.791 438.833 49.945 439.034L50.1376 439.286C50.4159 439.659 50.4225 439.738 50.728 440.533C50.9334 441.295 50.9334 442.056 50.728 442.819C50.6292 443.187 50.4799 443.533 50.2873 443.854C50.1113 444.163 49.9006 444.433 49.6635 444.682L49.5428 444.805C49.1406 445.237 48.6656 445.541 48.1179 445.721C47.7713 445.922 47.399 446.02 47.0011 446.02C46.4106 446.153 45.8197 446.127 45.2339 445.943C44.8788 445.793 44.5279 445.644 44.1766 445.498L43.2784 444.805L42.5853 443.906L42.3642 443.378L42.1402 442.848L41.9819 441.671C41.9605 441.059 42.0846 440.494 42.3623 439.963C42.4693 439.59 42.658 439.261 42.9314 438.987C43.1287 438.653 43.3935 438.388 43.7277 438.191C44.0011 437.917 44.331 437.729 44.7033 437.622C45.0499 437.421 45.4222 437.322 45.8197 437.322ZM323.273 431.102C323.74 431.086 324.177 431.184 324.579 431.398C324.72 431.445 324.857 431.505 324.99 431.574C325.507 431.877 325.918 432.288 326.222 432.802C326.47 433.196 326.607 433.62 326.628 434.077C326.721 434.49 326.713 434.906 326.601 435.319L326.564 435.443C326.47 435.781 326.329 436.093 326.141 436.38C326.123 436.414 326.102 436.449 326.076 436.479C325.79 436.933 325.409 437.305 324.938 437.583C324.416 437.883 323.856 438.037 323.248 438.042C322.037 438.042 320.993 437.387 320.356 436.38C320.266 436.239 320.214 436.059 320.151 435.914C320.095 435.777 320.005 435.602 319.957 435.443C319.795 434.835 319.795 434.227 319.957 433.62C320.064 433.174 320.266 432.785 320.57 432.455C320.813 432.083 321.134 431.788 321.532 431.574C322.026 431.285 322.557 431.132 323.12 431.106L323.273 431.102ZM86.4268 426.843C87.0192 426.681 87.6084 426.669 88.197 426.806L88.3442 426.843C88.8144 426.955 89.2213 427.169 89.5718 427.485C89.9612 427.742 90.2739 428.08 90.5003 428.5C90.8259 429.061 90.9885 429.669 90.9924 430.319C90.9885 430.97 90.8259 431.578 90.5003 432.138C90.1794 432.682 89.7472 433.11 89.2042 433.431L88.7335 433.658C88.3399 433.906 87.9205 434.039 87.4665 434.06C87.1632 434.142 86.8589 434.142 86.5598 434.06C86.2513 434.06 85.9646 433.983 85.6998 433.829C85.4088 433.748 85.1602 433.602 84.9463 433.388C84.574 433.148 84.2835 432.832 84.0695 432.434L83.7225 431.616L83.6031 430.708L83.7225 429.806L83.9112 429.36C84.0819 428.748 84.3904 428.217 84.8393 427.768C85.2886 427.322 85.8192 427.014 86.4268 426.843ZM298.627 419.622C299.252 419.425 299.872 419.399 300.493 419.536C300.912 419.536 301.305 419.643 301.67 419.858C302.068 419.968 302.409 420.165 302.701 420.457C303.21 420.786 303.608 421.223 303.903 421.766L304.373 422.884C304.656 423.607 304.553 424.673 304.382 425.401C304.241 426 303.967 426.522 303.561 426.967C303.355 427.314 303.082 427.588 302.735 427.794C302.338 428.154 301.882 428.411 301.363 428.563L301.22 428.602L301.169 428.615C301.16 428.619 301.152 428.619 301.143 428.619C301.139 428.624 301.13 428.624 301.126 428.624C300.921 428.675 300.711 428.705 300.493 428.714C299.872 428.851 299.252 428.825 298.627 428.628C298.259 428.474 297.887 428.316 297.515 428.158C297.198 427.918 296.885 427.673 296.569 427.429C296.325 427.113 296.081 426.796 295.837 426.484C295.495 425.949 295.311 425.367 295.285 424.746C295.174 424.331 295.174 423.92 295.285 423.504C295.285 423.081 295.392 422.691 295.602 422.327C295.79 421.745 296.111 421.244 296.569 420.821C296.885 420.576 297.198 420.332 297.515 420.093C297.887 419.934 298.259 419.776 298.627 419.622ZM25.7178 404.297C26.3635 404.122 27.01 404.122 27.6561 404.297L28.5243 404.661C28.9522 404.892 29.2907 405.204 29.5474 405.603C29.8726 405.954 30.0904 406.369 30.2017 406.844C30.4546 407.495 30.4246 408.527 30.2235 409.19C29.9967 409.943 29.6458 410.543 29.1024 411.108C28.1996 412.041 26.8128 412.311 25.5851 412.028C25.2467 411.951 24.9258 411.801 24.6348 411.617C23.7067 411.044 23.082 410.042 23.0863 408.933C23.0863 408.813 23.0948 408.694 23.1119 408.574C23.052 408.33 23.0302 408.077 23.0392 407.811L23.1676 406.844L23.1757 406.819C23.3473 406.206 23.6554 405.676 24.1042 405.226C24.5193 404.815 25.0034 404.517 25.5566 404.339L25.6964 404.297H25.7178ZM348.601 308.177C347.432 298.59 343.037 288.275 329.632 293.905L328.637 294.278C325.32 295.535 321.455 297.185 319.436 300.086C318.045 302.085 318.516 305.959 318.323 308.292C317.449 315.877 317.918 323.452 318.829 331.005C320.004 348.709 316.283 367.052 308.875 383.143C316.289 395.143 326.212 406.337 339.747 411.339C340.32 397.694 342.99 384.3 345.832 370.986L345.944 370.405C347.081 364.402 347.65 358.24 351.591 353.247C359.609 344.539 370.637 349.467 375.913 335.478C374.805 334.918 375.417 333 376.752 333.368C381.38 334.19 382.132 325.608 378.964 323.54C375.664 321.527 378.987 317.813 377.582 315.132C376.799 313.977 375.109 313.938 374.342 312.607C372.311 307.706 382.475 304.565 370.523 299.04C368.077 298.17 365.342 298.71 362.875 298.7C359.246 299.039 356.361 301.597 353.042 302.402C356.656 311.763 347.537 320.777 339.307 313.301C334.828 317.535 329.82 327.188 340.706 322.688C346.035 319.131 350.622 314.532 356.808 312.341L356.939 312.3C359.235 311.548 369.283 306.664 368.785 310.891C365.021 314.525 358.814 314.482 354.455 317.432C348.412 320.227 344.547 327.002 337.313 326.908C335.645 337.039 347.137 330.875 351.416 328.081L352.603 327.437C358.639 324.175 364.766 321.153 371.805 321.113C373.748 321.1 373.739 324.096 371.805 324.122C362.631 324.179 355.165 329.916 347.48 334.181C346.723 340.094 355.38 337.506 358.665 336.633C362.109 336.149 367.64 332.422 370.655 334.391C371.833 337.421 366.645 337.196 364.839 338.115C373.086 342.077 365.861 344.572 363.65 338.483L363.002 338.704C357.48 340.56 344.09 344.382 345.683 335.025C343.662 335.919 341.198 336.454 338.965 335.958C333.396 344.198 324.512 341.009 337.424 335.393C334.514 334.039 333.543 328.811 336.338 326.866C326.174 326.245 333.72 315.577 337.926 312.022C337.529 311.621 337.145 311.211 336.786 310.796C334.36 311.952 331.811 312.654 329.084 312.902C326.474 313.137 325.893 308.695 328.468 308.331C331.228 307.941 333.77 307.205 336.2 305.818C339.884 304.227 341.141 311.063 344.827 311.306C346.838 311.704 348.198 309.94 348.601 308.177ZM263.031 396.395C263.921 396.395 264.712 396.768 265.358 397.358C266.005 397.949 266.283 398.836 266.321 399.683C266.338 400.136 266.244 400.56 266.039 400.954C265.906 401.361 265.679 401.712 265.358 402.012C264.759 402.606 263.874 402.975 263.031 402.975C262.141 402.975 261.35 402.602 260.703 402.012C260.057 401.416 259.779 400.535 259.74 399.683C259.723 399.233 259.818 398.81 260.023 398.416C260.142 398.05 260.338 397.725 260.61 397.449L260.703 397.358C261.302 396.759 262.188 396.395 263.031 396.395ZM289.999 376.094L290.142 376.097C290.895 376.101 291.593 376.289 292.243 376.666C292.525 376.884 292.808 377.098 293.086 377.317C293.604 377.839 293.959 378.451 294.156 379.158C294.357 379.894 294.357 380.634 294.156 381.37C294.088 381.794 293.929 382.205 293.681 382.561C293.313 383.172 292.825 383.665 292.209 384.028C291.571 384.401 290.882 384.585 290.142 384.589C289.402 384.585 288.713 384.401 288.075 384.028C287.459 383.665 286.971 383.172 286.608 382.561C286.355 382.205 286.197 381.794 286.128 381.37C285.927 380.634 285.927 379.894 286.128 379.158C286.311 378.501 286.63 377.927 287.09 377.43L287.198 377.317C287.575 376.91 288.02 376.623 288.537 376.456C288.992 376.217 289.48 376.096 289.999 376.094ZM84.1845 376.323C84.5015 376.238 84.8139 376.238 85.1305 376.323C85.6012 376.345 86.0415 376.486 86.4485 376.743C86.6881 376.931 86.9277 377.116 87.1673 377.3L87.3762 377.551C87.8228 378.095 87.8341 378.188 88.1767 379.016C88.3183 379.479 88.3397 379.941 88.237 380.403C88.237 380.716 88.1558 381.007 88.0013 381.276C87.9161 381.572 87.7706 381.829 87.5524 382.043C87.3979 382.303 87.193 382.513 86.9315 382.668C86.5982 382.972 86.2046 383.181 85.751 383.288L84.8306 383.412C84.7112 383.395 84.5871 383.378 84.4673 383.365C84.3229 383.361 84.1826 383.345 84.0453 383.318L83.9064 383.288L83.7798 383.254C83.6123 383.205 83.4491 383.14 83.2906 383.057C82.9911 382.972 82.7301 382.822 82.5071 382.599C82.1225 382.351 81.8144 382.017 81.5919 381.602L81.532 381.465C81.4507 381.319 81.3822 381.169 81.3304 381.007C81.1854 380.75 81.1126 380.476 81.1084 380.181C81.0233 379.788 81.029 379.398 81.1308 379.009L81.1683 378.879L81.4978 378.096C81.6689 377.831 81.8486 377.56 82.0793 377.342C82.2183 377.219 82.558 376.954 82.7493 376.821L82.8666 376.743C83.2735 376.486 83.7142 376.345 84.1845 376.323ZM32.5982 370.202C33.2144 367.775 36.3979 367.009 38.1309 368.743C39.8634 370.477 39.0979 373.661 36.6722 374.278L36.3936 374.346C34.0488 374.941 31.935 372.822 32.5297 370.477L32.5982 370.202ZM326.29 350.405C326.273 350.165 326.581 350.08 326.735 350.221C328.798 352.07 330.111 354.287 332.615 355.721C335.131 357.16 337.724 357.044 340.347 357.973C341.237 358.289 341.241 359.48 340.347 359.792C335.383 361.526 326.667 355.648 326.29 350.405ZM93.0677 350.028C93.6201 349.857 94.1764 349.831 94.7284 349.955C95.1049 349.955 95.4554 350.049 95.7763 350.237C96.1314 350.336 96.4357 350.516 96.6963 350.772C97.009 350.957 97.2572 351.209 97.4451 351.522C97.8135 351.924 98.0617 352.395 98.1896 352.935L98.3351 354.043L98.1896 355.152C98.0484 355.481 97.9072 355.815 97.7703 356.145L97.3879 356.663C97.0781 357.077 97.0285 357.081 96.2769 357.639C95.7981 357.942 95.2804 358.11 94.7284 358.131C94.36 358.234 93.992 358.234 93.6201 358.131C93.2479 358.131 92.8966 358.037 92.5718 357.849C92.2205 357.75 91.9129 357.57 91.6514 357.314C91.1983 357.018 90.8431 356.629 90.5817 356.145C90.4405 355.815 90.2997 355.481 90.1628 355.152L90.0126 354.043L90.1628 352.935L90.1709 352.9C90.3677 352.207 90.719 351.603 91.2235 351.093L92.0541 350.451C92.3788 350.242 92.7169 350.135 93.0677 350.028ZM292.812 350.859C293.997 350.533 295.298 350.875 296.166 351.745C297.036 352.614 297.378 353.91 297.053 355.096C296.732 356.252 295.803 357.189 294.644 357.502C294.297 357.596 293.946 357.648 293.591 357.63C292.996 357.626 292.44 357.476 291.922 357.177L291.255 356.658C290.929 356.359 290.703 356.004 290.57 355.593C290.36 355.199 290.266 354.775 290.283 354.317L290.279 354.236C290.266 354.073 290.287 353.91 290.339 353.752C290.339 353.585 290.365 353.422 290.407 353.264C290.72 352.108 291.661 351.175 292.812 350.859ZM37.2922 339.267C37.673 339.254 38.0282 339.331 38.3576 339.506C38.7042 339.618 38.9995 339.806 39.2477 340.08C39.5215 340.328 39.7098 340.628 39.821 340.97C39.9965 341.3 40.0735 341.655 40.0606 342.036C40.0606 342.537 39.9323 343.003 39.6841 343.432C39.5386 343.62 39.3931 343.808 39.2477 343.992C38.9053 344.339 38.4988 344.574 38.0282 344.707L37.7543 344.801C37.3521 344.947 36.9584 344.955 36.5391 344.9C36.0984 344.84 35.6914 344.72 35.3324 344.446C34.9811 344.241 34.7034 343.962 34.4981 343.611L34.2627 343.055C34.2114 342.867 34.19 342.584 34.1771 342.387C34.1771 342.357 34.1771 342.332 34.1729 342.301C34.1729 342.134 34.2242 341.728 34.2666 341.561C34.3611 341.21 34.5532 340.876 34.7719 340.593C34.9602 340.299 35.2169 340.067 35.5336 339.896L35.5617 339.874L35.5935 339.853C35.6914 339.784 35.7946 339.716 35.8973 339.643C36.3251 339.395 36.7916 339.267 37.2922 339.267ZM258.252 336.227C258.936 336.227 259.574 336.403 260.164 336.745C260.185 336.753 260.207 336.762 260.224 336.771C260.789 337.105 261.238 337.555 261.572 338.119C261.914 338.706 262.085 339.34 262.085 340.016C262.085 340.696 261.914 341.325 261.572 341.912C261.238 342.477 260.789 342.926 260.224 343.261C260.207 343.273 260.185 343.281 260.164 343.29C259.574 343.633 258.936 343.804 258.252 343.808C257.571 343.804 256.934 343.633 256.343 343.29C255.188 342.614 254.464 341.351 254.464 340.016C254.464 338.68 255.188 337.417 256.343 336.745C256.934 336.403 257.571 336.227 258.252 336.227ZM80.5555 331.277L80.672 331.275C81.1256 331.257 81.5488 331.352 81.9382 331.562C82.3447 331.694 82.6998 331.921 82.9998 332.242L83.6245 332.764L83.8058 332.911C83.8357 332.936 83.8651 332.961 83.8936 332.987C84.3134 333.411 84.6001 333.907 84.7627 334.481C84.814 334.811 84.8564 335.136 84.8911 335.465C84.9848 336.321 84.4803 337.199 83.924 337.807C83.6245 338.128 83.2689 338.355 82.8586 338.492C82.4649 338.698 82.037 338.791 81.583 338.774C80.6545 338.693 79.7735 338.496 79.106 337.777C79.0285 337.691 78.9558 337.601 78.8792 337.511L78.3443 336.895C77.9378 336.484 77.655 336 77.5014 335.444C77.4581 335.149 77.4201 334.857 77.3816 334.566C77.3426 333.689 77.7705 332.867 78.3443 332.242C78.8741 331.664 79.7726 331.31 80.5555 331.277ZM58.9566 322.264C63.4063 322.264 63.3977 329.169 58.9566 329.169C54.5104 329.169 54.5189 322.264 58.9566 322.264ZM282.693 312.583L282.833 312.586C283.57 312.59 284.258 312.774 284.896 313.146L285.726 313.784C286.231 314.298 286.582 314.897 286.779 315.591C286.826 315.954 286.873 316.318 286.924 316.678C286.946 317.243 286.826 317.769 286.569 318.257C286.407 318.763 286.124 319.203 285.726 319.576C285.354 319.974 284.917 320.256 284.408 320.419C283.921 320.676 283.394 320.796 282.833 320.774C282.094 320.77 281.404 320.586 280.767 320.214C280.489 320 280.215 319.786 279.937 319.576C279.471 319.102 279.136 318.555 278.936 317.928L278.889 317.769L278.739 316.678C278.718 316.117 278.837 315.591 279.094 315.103C279.257 314.593 279.539 314.157 279.937 313.784C280.309 313.386 280.75 313.103 281.255 312.941C281.702 312.706 282.182 312.585 282.693 312.583ZM262.65 299.658C263.048 299.645 263.416 299.726 263.763 299.907C264.118 300.022 264.426 300.223 264.687 300.501C265.239 300.943 265.577 301.824 265.577 302.539C265.577 303.254 265.239 304.136 264.687 304.576C264.327 304.932 263.904 305.18 263.416 305.317L262.65 305.42C261.905 305.454 261.148 305.065 260.617 304.576C260.51 304.478 260.408 304.38 260.301 304.285C259.818 303.84 259.608 303.177 259.578 302.539C259.565 302.201 259.638 301.884 259.792 301.589C259.89 301.281 260.061 301.019 260.301 300.792C260.408 300.698 260.51 300.6 260.617 300.501C261.195 299.966 261.871 299.697 262.65 299.658ZM389.64 276.633C392.451 273.207 390.814 270.768 386.589 271.616C379.31 272.601 372.46 277.202 366.05 280.502C359.054 284.199 351.843 287.248 344.706 290.722C347.651 292.53 349.841 295.361 351.514 298.592C354.854 296.055 359.123 294.842 363.29 294.684C370.851 287.441 383.371 285.782 389.64 276.633ZM57.4592 288.007C58.2216 288.01 58.9359 288.19 59.6052 288.548L59.748 288.627L60.6636 289.338C61.1087 289.749 61.421 290.236 61.605 290.797C61.8874 291.337 62.0158 291.923 61.9944 292.548C62.0158 293.173 61.8874 293.755 61.605 294.295C61.421 294.86 61.1087 295.343 60.6636 295.754C60.4112 296.084 60.086 296.341 59.6966 296.53C59.3325 296.679 58.9735 296.833 58.6098 296.987C58.2033 297.116 57.7326 297.133 57.2919 297.154C56.4917 297.15 55.7476 296.949 55.0536 296.546L54.1554 295.853C53.7232 295.45 53.4147 294.975 53.235 294.423C52.9805 293.937 52.8514 293.418 52.8514 292.863L52.8546 292.711C52.8546 292.677 52.8546 292.638 52.8593 292.599C52.9102 292.197 52.9663 291.795 53.0211 291.393C53.1627 290.802 53.4323 290.284 53.8345 289.847C53.9372 289.642 54.0741 289.475 54.25 289.338C54.8144 288.773 55.4814 288.387 56.2521 288.169C56.6543 288.118 57.0565 288.062 57.4592 288.007ZM255.999 276.665L256.129 276.667C256.706 276.667 257.241 276.813 257.738 277.099C257.956 277.267 258.17 277.433 258.384 277.6C258.782 277.998 259.056 278.469 259.205 279.009L259.321 279.856C259.334 280.297 259.244 280.704 259.043 281.085C258.915 281.479 258.696 281.821 258.384 282.112C258.097 282.424 257.755 282.643 257.357 282.771C256.98 282.972 256.569 283.062 256.129 283.046C255.555 283.046 255.016 282.9 254.52 282.609C254.306 282.446 254.088 282.279 253.874 282.112C253.513 281.747 253.253 281.321 253.097 280.837L253.056 280.704L252.941 279.856C252.924 279.415 253.014 279.009 253.215 278.628C253.343 278.23 253.566 277.887 253.874 277.6C254.165 277.287 254.507 277.069 254.901 276.941C255.244 276.76 255.61 276.669 255.999 276.665ZM82.4694 272.029L82.6187 272.031C83.4702 272.035 84.2618 272.249 84.9978 272.677C85.3144 272.922 85.6315 273.166 85.9477 273.414C86.5339 274 86.9361 274.694 87.1633 275.494L87.3298 276.744C87.3555 277.395 87.2185 277.998 86.9233 278.559C86.7354 279.146 86.4098 279.651 85.9477 280.079C85.5245 280.537 85.0192 280.862 84.433 281.051C83.8724 281.346 83.2691 281.483 82.6187 281.457C81.7672 281.457 80.9756 281.243 80.2396 280.815C79.9234 280.571 79.6068 280.323 79.2859 280.079C78.7035 279.488 78.3013 278.794 78.0745 277.998L77.9076 276.744C77.8819 276.098 78.0189 275.49 78.3141 274.929C78.5024 274.347 78.8276 273.838 79.2859 273.414C79.7137 272.952 80.2182 272.626 80.8044 272.438C81.3219 272.165 81.8757 272.031 82.4694 272.029ZM240.909 260.26C241.298 260.157 241.687 260.157 242.077 260.26C242.659 260.285 243.203 260.461 243.707 260.782L244.593 261.467C244.606 261.479 244.619 261.493 244.632 261.51C245.167 262.049 245.538 262.687 245.744 263.419L245.898 264.57C245.92 265.165 245.796 265.721 245.526 266.236C245.365 266.73 245.1 267.159 244.734 267.531L244.593 267.669C244.195 268.097 243.728 268.401 243.185 268.577C242.843 268.778 242.47 268.877 242.077 268.877C241.495 269.009 240.909 268.984 240.327 268.799C239.98 268.649 239.629 268.504 239.279 268.359L239.167 268.294C237.845 267.571 237.028 266.056 237.028 264.57C237.028 263.085 237.845 261.565 239.167 260.842C239.206 260.825 239.24 260.803 239.279 260.782C239.784 260.461 240.327 260.285 240.909 260.26Z" fill="#12296C"/>
<path fill-rule="evenodd" clip-rule="evenodd" d="M236.804 35.1109C213.925 28.3934 135.242 35.2792 133.297 36.7341C130.113 39.3808 114.625 47.7787 112.215 49.696C90.425 72.8001 111.198 107.11 109.6 134.982C109.701 144.868 105.49 153.895 103.554 163.406C102.737 168.391 102.917 173.546 105.514 178.021C110.08 186.017 119.721 187.638 127.563 190.862C131.465 192.543 135.11 194.926 138.452 197.533C160.953 217.445 173.477 231.081 206.308 226.589C206.476 228.157 207.864 229.697 209.585 228.997C213.616 227.355 217.618 225.613 221.684 224.056C222.553 226.151 225.049 226.749 226.74 224.899L226.75 224.912C234.277 218.805 239.063 210.454 242.618 201.514C245.106 196.356 247.143 190.975 248.699 185.433C248.875 184.806 248.852 184.246 248.693 183.763C255.876 159.003 258.534 132.907 256.643 107.199C256.26 101.895 255.259 96.5203 255.505 91.194C255.727 86.3817 257.799 81.8298 259.379 77.348C267.525 58.2955 255.073 41.1098 236.804 35.1109Z" fill="white"/>
<path fill-rule="evenodd" clip-rule="evenodd" d="M239.682 4.17606L239.926 3.98691C242.563 1.91663 245.051 -0.796651 248.77 0.220789C251.821 1.0555 253.361 3.58106 254.016 6.63312C254.944 5.66142 255.847 4.65549 256.729 3.6153C259.125 0.790109 264.478 2.25407 265.192 5.85405C266.639 13.1054 266.711 20.4851 265.304 27.7493C265.09 28.8494 264.837 29.9452 264.542 31.0282C266.147 29.0292 267.64 26.9445 268.979 24.7486C270.43 22.3643 273.708 23.5457 273.934 26.0927C273.994 26.7519 274.028 27.4197 274.037 28.0917C275.06 28.4513 275.766 29.5043 275.496 30.7971C274.007 37.9114 272.12 44.9273 269.852 51.8234C273.498 49.8885 277.584 48.7413 281.431 50.1068C287.541 52.2814 288.996 58.9505 287.802 64.6908C286.3 71.9079 281.576 77.9478 275.483 81.9074C274.76 82.9946 274.046 84.0905 273.365 85.2077C273.352 88.3625 272.779 91.5087 271.624 94.4324C270.323 97.7156 268.029 100.554 265.205 102.711C264.213 104.873 261.584 106.453 259.276 106.015L259.155 105.99L259.151 105.994C259.741 108.109 260.25 110.245 260.691 112.385C264.104 128.967 262.376 146.228 259.263 162.717L259.163 163.243C256.369 177.917 253.117 193.113 246.797 206.738C241.081 219.058 231.389 229.892 217.538 232.58C201.244 235.743 183.208 230.731 169.195 222.371C164.116 219.34 168.771 211.353 173.829 214.435C181.129 218.878 189.058 221.981 197.444 223.616C205.283 225.14 214.051 225.658 221.569 222.499C232.039 218.099 238.261 207.35 242.198 197.231C244.517 191.259 246.254 185.095 247.871 178.906C249.955 170.948 251.898 162.939 253.357 154.84C256.074 139.734 256.956 124.046 254.08 108.897C253.164 104.064 251.868 99.201 250.178 94.5266C249.912 94.197 249.66 93.8288 249.433 93.4265C247.666 90.3273 246.447 86.8044 245.133 83.4527C243.982 81.4536 242.724 79.5316 241.389 77.6525C239.393 76.1179 237.492 74.4771 235.75 72.687C240.808 69.4106 245.272 65.3089 248.483 60.084C249.013 59.2224 248.676 58.3988 248.049 57.9343C245.484 61.1435 242.165 63.8612 238.673 66.2691C236.884 67.8015 234.958 69.1782 232.939 70.4221C231.497 70.7076 230.039 70.9037 228.625 71.0646C224.598 71.5227 220.551 71.3514 216.545 70.8163C207.885 69.6606 171.258 59.5695 155.819 63.4923C152.603 64.3094 151.087 67.195 149.384 69.9046C147.906 72.2615 146.027 74.2124 143.773 75.8188L143.521 75.9959C139.114 79.0479 130.253 88.7032 126.528 97.3209C121.719 108.447 117.099 141.789 119.226 142.075C124.788 142.829 127.869 145.757 132.4 148.899C132.7 149.104 132.525 149.661 132.139 149.519C129.149 148.441 125.914 147.803 122.777 147.281C119.94 146.805 116.954 146.72 114.215 147.734C110.013 149.292 107.964 152.815 107.121 156.788C106.791 158.342 106.646 159.964 106.629 161.569L106.626 162.035C106.628 167.096 107.572 172.707 111.246 176.44C112.807 178.028 114.925 179.098 117.142 179.394C119.568 179.719 121.066 178.623 123.295 178.054C125.862 177.399 127.865 179.09 127.625 181.294C128.169 181.769 128.695 182.27 129.217 182.78L129.218 182.782L129.221 182.784C129.564 182.938 129.889 183.143 130.184 183.392C130.668 183.803 131.074 184.252 131.399 184.736C132.122 184.877 132.816 185.279 133.385 186.016C134.557 187.527 135.64 189.055 136.645 190.613C138.447 192.526 140.239 194.444 142.007 196.392C144.134 198.733 146.205 201.127 148.289 203.507L149.332 204.696C150.458 205.976 151.579 207.256 152.7 208.54L153.034 208.917C154.162 210.181 155.026 211.113 155.147 212.932C155.233 214.28 153.782 215.197 152.58 214.888C150.726 214.41 149.865 212.954 148.755 211.51L147.077 209.357L145.498 207.329C144.715 206.319 143.924 205.313 143.136 204.307C142.901 206.16 140.941 207.654 139.153 207.735L138.736 207.752C134.536 207.891 129.431 207.299 126.235 204.337C124.797 205.788 123.008 206.931 120.805 207.616C115.798 209.174 110.681 206.413 108.657 202.213C104.733 203.896 100.3 204.234 96.0596 202.997C93.6138 202.28 92.768 199.23 94.4723 197.364L94.5492 197.282L94.5688 197.26C94.2171 196.802 94.0237 196.242 93.9925 195.632C93.9544 194.892 94.494 194.107 94.3827 193.416C93.9582 190.779 89.6605 192.732 88.2947 193.303C88.0337 193.412 87.7889 193.464 87.5604 193.472C85.4488 194.087 83.1523 191.312 84.2584 189.021C86.7359 183.901 89.1534 178.743 91.6609 173.632C91.3443 173.739 91.0191 173.837 90.6981 173.919C86.1924 175.075 80.7283 172.857 81.768 167.425C82.0076 166.149 83.163 165.276 84.3097 164.882C86.5433 164.112 88.2206 164.668 89.9408 163.949C91.8791 163.144 93.903 161.668 95.6061 160.276C97.4246 158.795 98.995 157.13 100.386 155.324C100.942 152.7 101.905 150.191 103.445 148.034C103.539 147.906 103.633 147.777 103.732 147.653C93.8531 145.297 95.1466 135.578 90.7891 126.964L90.421 126.25C87.4615 120.489 84.8796 113.993 86.3721 107.433C86.6374 106.273 87.0225 105.164 87.5189 104.128C86.7273 104.226 85.9314 104.316 85.1398 104.406C83.3213 104.612 81.4728 102.266 82.1959 100.541C82.5767 99.6376 82.9961 98.7644 83.4496 97.9168C84.7076 95.5796 86.2523 93.4564 88.0709 91.5387C85.0157 91.4574 81.9563 91.4574 78.9354 91.1064C76.0813 90.7768 73.0818 89.2143 73.1678 85.9226C73.2581 82.784 76.0107 80.4083 78.5631 78.8771C81.0753 75.5344 84.2618 72.7563 87.8659 70.6918C87.1529 70.5314 86.4305 70.4126 85.6962 70.3396L85.3281 70.307C83.2699 70.1443 81.4214 69.5793 79.5558 68.7189C77.887 67.9484 77.9127 65.6112 79.0038 64.434C82.5314 60.6191 87.8167 61.8614 91.9292 64.0475C91.6428 63.684 91.3292 63.3338 90.9874 62.9988L90.779 62.7997C88.7585 60.9175 91.791 57.8971 93.8046 59.7728C94.4409 60.3657 95.0109 61.0099 95.5192 61.6927L95.5675 61.5917C98.2281 56.1931 102.119 51.361 106.723 47.489L107.805 46.589C116.107 39.6516 118.669 36.3635 129.709 37.3849C129.238 35.3786 129.284 33.1217 129.39 31.2659L129.405 31.0154C129.829 24.038 132.4 15.6866 139.204 12.5532C140.971 11.7441 142.974 13.0669 142.503 15.0916C142.174 16.5256 141.771 17.921 141.271 19.278C142.755 17.7156 144.347 16.2559 146.033 14.9118C152.905 9.43263 162.088 4.71969 171.12 6.26071C176.084 7.11255 179.978 10.2288 184.133 12.8314C188.309 15.4511 192.973 17.005 197.864 17.5658C204.697 18.3534 211.556 17.5615 218.313 16.3115C222.955 14.2868 227.461 11.9154 231.86 9.35986C234.564 7.78888 237.196 6.07236 239.682 4.17606ZM118.357 155.722C119.804 155.349 121.425 155.354 122.876 155.718C126.62 156.659 130.103 159.793 130.321 163.744C130.42 165.529 128.982 167.237 127.313 167.695C125.422 168.217 123.796 167.292 122.692 165.811C121.507 164.227 121.211 162.511 119.761 161.073L119.426 160.747C118.193 159.567 116.329 158.042 114.618 158.316C114.365 158.354 114.177 158.012 114.434 157.875C115.828 157.113 116.744 156.133 118.357 155.722ZM137.805 137.114C138.465 136.575 139.338 137.207 139.027 137.983L139.003 138.039C138.22 139.691 139.14 141.63 140.09 143.013C140.907 144.207 139.362 145.341 138.275 144.828C135.22 143.377 135.379 139.083 137.805 137.114ZM148.973 87.472C148.917 87.0696 149.452 86.9027 149.589 87.3007C151.87 93.9228 152.524 99.7872 152.152 106.79L152.117 107.412C151.714 114.157 150.533 121.296 146.452 126.836C145.507 128.116 143.573 127.363 143.885 125.753C145.139 119.311 147.548 113.194 148.485 106.675C149.465 99.86 149.906 94.291 148.973 87.472ZM127.672 111.542C128.006 109.774 130.723 107.955 132.097 109.731C132.559 110.335 132.016 111.075 131.459 111.298C130.937 111.503 130.471 111.221 129.957 111.324C129.542 111.407 129.238 111.667 129.036 112.021L128.995 112.098C128.592 112.869 127.531 112.295 127.672 111.542ZM126.56 97.4587C127.536 95.6523 129.782 94.5008 131.703 95.6266C132.337 95.999 132.088 97.082 131.318 97.0477L130.862 97.0293C129.492 96.9793 128.122 97.0071 126.971 97.8739C126.714 98.0665 126.432 97.7027 126.56 97.4587ZM129.99 48.1258C124.518 45.6644 119.076 47.8865 114.607 51.3521C114.237 51.6389 114.058 51.9736 114.019 52.3101C117.002 51.1479 120.178 50.3859 123.214 49.7571C125.697 49.2426 128.203 48.8954 130.712 48.7584C130.572 48.5063 130.341 48.2837 129.99 48.1258Z" fill="#12296C"/>
<path fill-rule="evenodd" clip-rule="evenodd" d="M206.923 196.02C204.047 194.846 201.48 192.888 199.604 190.386C198.952 189.517 198.783 188.598 198.919 187.759C199.073 186.814 199.632 185.958 200.393 185.384C201.157 184.808 202.113 184.524 203.037 184.669C203.84 184.795 204.639 185.235 205.272 186.147L205.404 186.329C206.519 187.839 207.973 189.077 209.629 189.876C211.226 190.645 213.011 191.005 214.859 190.796C218.378 190.398 220.803 188.494 223.381 185.909C223.701 185.583 224.02 185.246 224.342 184.904C224.544 184.594 224.826 184.395 225.139 184.29C225.486 184.174 225.879 184.18 226.238 184.306C226.585 184.427 226.895 184.657 227.103 184.962C227.301 185.252 227.413 185.611 227.376 186.023C227.14 188.703 225.74 191.094 223.751 192.971C221.542 195.057 218.614 196.499 215.857 197.005C212.82 197.563 209.726 197.163 206.923 196.02ZM217.29 154.686C220.521 156.651 225.445 161.233 221.969 166.104C217.877 170.399 211.986 165.474 209.083 163.247C206.391 161.521 203.367 165.96 205.864 167.976C226.841 183.512 235.354 155.2 218.924 152.376C217.115 152.065 216.444 154.079 217.29 154.686ZM179.699 136.614C180.056 132.18 186.805 131.174 187.477 135.56C188.078 139.49 187.37 143.1 185.601 146.638C183.91 150.018 179.661 148.441 179.34 145.363C178.909 141.238 179.477 139.371 179.699 136.614ZM231.074 134.651C232.015 133.418 233.373 132.577 235.001 133.052C240.086 134.539 238.588 141.761 236.802 145.277C235.831 147.186 232.694 147.67 231.277 145.989C228.966 143.248 227.859 137.774 230.797 135.073C230.876 134.934 230.965 134.793 231.074 134.651ZM185.529 117.216L186.333 117.075C188.818 116.645 191.908 116.232 193.666 118.231C194.598 119.29 194.919 121.26 193.666 122.275C191.461 124.06 189.024 123.368 186.382 123.519C184.205 123.644 182.113 124.005 180.015 124.604C175.415 125.92 171.666 128.321 167.737 130.958C167.221 131.304 166.695 130.644 166.941 130.162C169.209 125.717 173.605 122.066 178.008 119.841C180.358 118.653 182.929 117.668 185.529 117.216ZM226.438 115.225L227.053 115.351C233.744 116.75 242.437 119.545 245.606 126.119C245.726 127.049 245.599 127.248 245.495 127.379L245.46 127.422C245.375 127.533 245.307 127.686 244.904 127.813C244.792 127.786 244.679 127.758 244.565 127.728C243.113 127.347 241.964 126.823 240.851 126.278L239.645 125.684C238.246 124.997 236.834 124.336 235.338 123.848C232.145 122.806 228.86 122.072 225.525 121.68C224.802 121.595 224.106 121.351 223.557 120.933C223.036 120.536 222.638 119.986 222.456 119.255C222.221 118.31 222.288 117.594 222.796 116.741C223.177 116.1 223.723 115.656 224.349 115.401C224.988 115.141 225.715 115.08 226.438 115.225Z" fill="#12296C"/>
</svg>
