<svg width="91" height="83" viewBox="0 0 91 83" fill="none" xmlns="http://www.w3.org/2000/svg">
<path d="M60.1041 30.4056L52.2916 28.1017C42.523 25.221 34.8831 17.581 32.0023 7.81243L29.6985 0L27.5168 7.46743C24.5469 17.6325 16.4376 25.4787 6.18017 28.1119L2.02656e-06 29.6985L7.81243 32.0023C17.581 34.8831 25.221 42.523 28.1017 52.2916L30.4056 60.1041L31.9921 53.9239C34.6254 43.6665 42.4716 35.5572 52.6367 32.5873L60.1041 30.4056Z" fill="white"/>
<path d="M90.1949 61.3457L89.3791 61.1051C79.6105 58.2244 71.9705 50.5844 69.0898 40.8158L68.8492 40L68.5738 40.9428C65.7101 50.7444 57.8907 58.3101 48 60.8492L48.8158 61.0898C58.5844 63.9705 66.2244 71.6105 69.1051 81.3791L69.3457 82.1949C71.8847 72.3041 79.4504 64.4848 89.2521 61.6211L90.1949 61.3457Z" fill="white"/>
</svg>
